<svg width="54" height="54" viewBox="0 0 54 54" fill="none" xmlns="http://www.w3.org/2000/svg">
<path d="M38.5714 0H15.4286C6.90761 0 0 6.90761 0 15.4286V38.5714C0 47.0924 6.90761 54 15.4286 54H38.5714C47.0924 54 54 47.0924 54 38.5714V15.4286C54 6.90761 47.0924 0 38.5714 0Z" fill="#0289F7" fill-opacity="0.1"/>
<path d="M19.2857 15.4286H22.1786C23.7762 15.4286 25.0714 16.7238 25.0714 18.3215V24.1072C25.0714 25.7049 23.7762 27 22.1786 27H19.2857V38.5715H15.4286V27H11.5714V23.1429H21.2143V19.2858H11.5714V15.4286H15.4286V11.5715H19.2857V15.4286ZM38.5714 38.5715H34.7143V34.7143H31.8214C30.2237 34.7143 28.9286 33.4192 28.9286 31.8215V26.0358C28.9286 24.4381 30.2237 23.1429 31.8214 23.1429H34.7143V11.5715H38.5714V23.1429H42.4286V27H32.7857V30.8572H42.4286V34.7143H38.5714V38.5715Z" fill="#0981E3"/>
</svg>
