<svg width="54" height="54" viewBox="0 0 54 54" fill="none" xmlns="http://www.w3.org/2000/svg">
<path d="M38.5714 0H15.4286C6.90761 0 0 6.90761 0 15.4286V38.5714C0 47.0924 6.90761 54 15.4286 54H38.5714C47.0924 54 54 47.0924 54 38.5714V15.4286C54 6.90761 47.0924 0 38.5714 0Z" fill="#0289F7" fill-opacity="0.09"/>
<path d="M26.2048 26.4797H36.7932V28.2446C36.7932 30.6877 36.0683 33.0761 34.7111 35.1075C33.3537 37.1389 31.4243 38.7228 29.1671 39.6578C26.91 40.5926 24.426 40.8376 22.0299 40.361C19.6336 39.8844 17.4325 38.7072 15.7049 36.9796C13.9774 35.252 12.801 33.0509 12.3244 30.6547C11.8478 28.2585 12.0919 25.7746 13.0268 23.5174C13.9618 21.2603 15.5456 19.3308 17.577 17.9735C19.6084 16.6162 21.9968 15.8914 24.4399 15.8914H26.2048V26.4797ZM22.6751 19.5998C21.56 19.8275 20.4932 20.2696 19.5376 20.9081C18.0868 21.8775 16.9554 23.2556 16.2875 24.8676C15.6197 26.4799 15.4458 28.255 15.7862 29.9666C16.1267 31.678 16.9669 33.2499 18.2008 34.4838C19.4348 35.7178 21.0072 36.5587 22.7188 36.8992C24.4303 37.2395 26.2047 37.0648 27.8169 36.397C29.429 35.7291 30.807 34.5978 31.7765 33.1469C32.4149 32.1913 32.8561 31.1246 33.0838 30.0095H22.6751V19.5998ZM29.7337 10.5976C31.3557 10.5976 32.9622 10.917 34.4609 11.5377C35.9596 12.1585 37.3216 13.0688 38.4687 14.2158C39.6158 15.3629 40.526 16.7249 41.1468 18.2237C41.7676 19.7223 42.0869 21.3288 42.0869 22.9509V24.7157H27.9688V10.5976H29.7337ZM31.4985 21.186H38.3784C38.2661 20.6357 38.102 20.0953 37.8861 19.5739C37.4426 18.5035 36.7921 17.531 35.9728 16.7117C35.1535 15.8924 34.1811 15.2419 33.1106 14.7985C32.5891 14.5825 32.049 14.4184 31.4985 14.3061V21.186Z" fill="#0981E3"/>
</svg>
