<svg width="54" height="54" viewBox="0 0 54 54" fill="none" xmlns="http://www.w3.org/2000/svg">
<path d="M38.5714 0H15.4286C6.90761 0 0 6.90761 0 15.4286V38.5714C0 47.0924 6.90761 54 15.4286 54H38.5714C47.0924 54 54 47.0924 54 38.5714V15.4286C54 6.90761 47.0924 0 38.5714 0Z" fill="#0289F7" fill-opacity="0.09"/>
<path d="M28.1087 12.9346C28.7338 12.9346 29.3129 13.241 29.6657 13.7437L29.8024 13.9704L29.9359 14.2037C30.6474 15.3311 32.0416 15.8497 33.3314 15.4325C34.0109 15.2127 34.7563 15.3925 35.2615 15.8974L36.4003 17.0346L37.5375 18.1717C38.0426 18.6769 38.2221 19.4238 38.0023 20.1035C37.5576 21.4792 38.177 22.9744 39.4644 23.6324C40.1002 23.9577 40.5002 24.6119 40.5002 25.3261V28.5431C40.5002 29.2573 40.1002 29.9115 39.4644 30.2368C38.177 30.8948 37.5575 32.39 38.0023 33.7657C38.2221 34.4452 38.0422 35.1907 37.5375 35.6959L36.4003 36.8346C36.3904 36.8446 36.3799 36.8539 36.3697 36.8636L35.1666 38.0056C34.6604 38.4864 33.9303 38.6512 33.267 38.4335C31.9284 37.9943 30.4698 38.5947 29.8281 39.8489L29.8024 39.8988C29.4774 40.5345 28.8227 40.9346 28.1087 40.9346H24.8918C24.1776 40.9346 23.5233 40.5346 23.1981 39.8988C22.54 38.6114 21.0448 37.9919 19.6691 38.4367C18.9894 38.6565 18.2425 38.477 17.7374 37.9718L16.6002 36.8346L15.463 35.6959C14.9582 35.1907 14.7783 34.4453 14.9982 33.7657C15.4431 32.3901 14.8235 30.8948 13.5361 30.2368C12.9003 29.9115 12.5002 29.2573 12.5002 28.5431V25.3245C12.5003 24.6053 12.9059 23.9546 13.5361 23.6324C14.8117 22.9803 15.4224 21.489 14.974 20.1469C14.7464 19.4646 14.9238 18.7125 15.4325 18.2039L16.6002 17.0346L17.739 15.8974L17.9384 15.7237C18.3589 15.4067 18.8931 15.2772 19.4118 15.3682L19.6691 15.4325L19.9281 15.5033C21.2283 15.7971 22.5811 15.1774 23.1981 13.9704L23.3348 13.7437C23.6876 13.241 24.2667 12.9346 24.8918 12.9346H28.1087ZM25.6735 16.2287C24.2885 18.194 21.8838 19.1885 19.5147 18.7781L18.9292 19.3636L18.318 19.9732C18.7391 22.3298 17.7427 24.7264 15.7944 26.1046V27.7613C17.7592 29.1461 18.7535 31.55 18.3438 33.9185L18.9292 34.5056L19.5147 35.0895C21.8837 34.6793 24.2885 35.6752 25.6735 37.6405H27.3189C28.6869 35.6677 31.0895 34.6705 33.4504 35.0911L34.1002 34.475L34.6551 33.9185C34.2455 31.5501 35.2413 29.146 37.2061 27.7613V26.1062C35.2414 24.7212 34.245 22.3177 34.6551 19.9491L34.0712 19.3636L33.4842 18.7781C31.1156 19.1879 28.7117 18.1936 27.327 16.2287H25.6735ZM26.5002 21.1699C29.684 21.1699 32.2649 23.7508 32.2649 26.9346C32.2649 30.1184 29.684 32.6993 26.5002 32.6993C23.3165 32.6993 20.7355 30.1184 20.7355 26.9346C20.7355 23.7508 23.3165 21.1699 26.5002 21.1699ZM26.5002 24.464C25.1358 24.464 24.0297 25.5701 24.0297 26.9346C24.0297 28.2991 25.1358 29.4052 26.5002 29.4052C27.8647 29.4052 28.9708 28.2991 28.9708 26.9346C28.9708 25.5701 27.8647 24.464 26.5002 24.464Z" fill="#0981E3"/>
</svg>
