<svg width="54" height="54" viewBox="0 0 54 54" fill="none" xmlns="http://www.w3.org/2000/svg">
<path d="M38.5714 0H15.4286C6.90761 0 0 6.90761 0 15.4286V38.5714C0 47.0924 6.90761 54 15.4286 54H38.5714C47.0924 54 54 47.0924 54 38.5714V15.4286C54 6.90761 47.0924 0 38.5714 0Z" fill="#0289F7" fill-opacity="0.1"/>
<path d="M32.5522 11.5715C33.8306 11.5716 35.057 12.08 35.9611 12.984L40.0517 17.0747C40.9558 17.9787 41.4641 19.2051 41.4643 20.4836V35.6786C41.4643 38.3414 39.3056 40.5 36.6428 40.5H17.941C14.0902 40.5 11.7934 36.2083 13.9294 33.0042L16.7676 28.7478C18.4246 26.2629 22.4502 26.4437 24.1071 28.9286L28.2392 22.1504L31.5464 24.1354L27.597 30.7197C26.0159 33.3547 21.9546 33.4143 20.25 30.8574C20.5231 30.8574 19.9769 30.8574 20.25 30.8574L17.1387 35.1437C16.7115 35.7845 17.1709 36.6428 17.941 36.6429H37.6071C37.6071 36.6429 37.6071 36.2111 37.6071 35.6786V20.4836C37.607 20.2281 37.5053 19.9825 37.3246 19.8018L33.2339 15.7111C33.0533 15.5305 32.8077 15.4288 32.5522 15.4286H16.3928C16.3928 15.4286 16.3929 15.8604 16.3928 16.3929V23.1429H12.5357V16.3929C12.5358 13.7302 14.6944 11.5715 17.3571 11.5715H32.5522Z" fill="#0981E3"/>
</svg>
