<svg width="54" height="54" viewBox="0 0 54 54" fill="none" xmlns="http://www.w3.org/2000/svg">
<path d="M38.5714 0H15.4286C6.90761 0 0 6.90761 0 15.4286V38.5714C0 47.0924 6.90761 54 15.4286 54H38.5714C47.0924 54 54 47.0924 54 38.5714V15.4286C54 6.90761 47.0924 0 38.5714 0Z" fill="#0289F7" fill-opacity="0.09"/>
<path d="M36.126 13.5C38.5414 13.5004 40.499 15.4584 40.4998 17.8738V18.7505C40.4995 20.0448 39.7951 21.1714 38.7502 21.7767V31.8757C38.7499 34.2918 36.7907 36.2495 34.3745 36.2495H29.2312L32.4891 41.1995L32.0316 41.5H28.4962L26.5055 38.4776L24.5052 41.5H20.9717L20.5123 41.1957L23.7855 36.2495H18.625C16.2091 36.2493 14.2496 34.2916 14.2493 31.8757V21.7767C13.2048 21.1713 12.5001 20.0446 12.4998 18.7505V17.8738C12.5005 15.4585 14.4583 13.5007 16.8736 13.5H36.126ZM17.7502 31.8757C17.7505 32.3586 18.1421 32.7502 18.625 32.7505H34.3745C34.8576 32.7505 35.249 32.3587 35.2493 31.8757V22.2495H17.7502V31.8757ZM16.8736 16.999C16.3914 16.9997 15.9996 17.3916 15.9988 17.8738V18.7505H37.0007V17.8738C36.9999 17.3915 36.6084 16.9995 36.126 16.999H16.8736Z" fill="#0981E3"/>
</svg>
