<svg width="54" height="54" viewBox="0 0 54 54" fill="none" xmlns="http://www.w3.org/2000/svg">
<path d="M38.5714 0H15.4286C6.90761 0 0 6.90761 0 15.4286V38.5714C0 47.0924 6.90761 54 15.4286 54H38.5714C47.0924 54 54 47.0924 54 38.5714V15.4286C54 6.90761 47.0924 0 38.5714 0Z" fill="#0289F7" fill-opacity="0.09"/>
<path d="M25.5574 12.7544C26.3419 12.5259 27.1751 12.5218 27.9619 12.7424L37.8057 15.5024C39.6942 16.0319 40.9997 17.7538 40.9998 19.7151V33.7014C40.9995 35.2711 40.158 36.7199 38.7952 37.4988L29.1702 43C27.8254 43.7683 26.1741 43.7683 24.8293 43L15.2043 37.4988C13.8415 36.7199 13 35.2711 12.9998 33.7014V19.6929C13.0002 17.7483 14.2842 16.0378 16.1511 15.4939L25.5574 12.7544ZM27.0168 16.1108C26.8595 16.0667 26.6918 16.0686 26.5349 16.1142L16.4998 19.0367C16.4998 19.4742 16.5002 19.3042 16.4998 19.6929V33.7014C16.5 34.0151 16.4998 34.3492 16.4998 34.2535L26.5657 39.9597C26.8347 40.1134 27.1648 40.1134 27.4338 39.9597L37.4998 34.2603C37.4998 34.3492 37.4995 34.0151 37.4998 33.7014V19.7151C37.4997 19.3229 37.4998 19.3785 37.4998 19.0504L27.0168 16.1108ZM34.4321 24.1362L27.4321 32.0112H24.908L21.3875 28.5864L23.8621 26.1118L26.0496 28.2993L31.8174 21.812L34.4321 24.1362Z" fill="#0981E3"/>
</svg>
