<svg width="54" height="54" viewBox="0 0 54 54" fill="none" xmlns="http://www.w3.org/2000/svg">
<path d="M38.5714 0H15.4286C6.90761 0 0 6.90761 0 15.4286V38.5714C0 47.0924 6.90761 54 15.4286 54H38.5714C47.0924 54 54 47.0924 54 38.5714V15.4286C54 6.90761 47.0924 0 38.5714 0Z" fill="#0289F7" fill-opacity="0.09"/>
<path d="M40.3127 25.6475C40.7106 28.6808 40.0821 31.76 38.5285 34.3955C36.9749 37.0309 34.5851 39.0717 31.7385 40.1924C28.8918 41.313 25.7518 41.4492 22.8186 40.5801C21.2552 40.1168 19.6105 39.335 18.1428 38.3008V41.1455H14.7151V34.2881L17.8244 33.293C19.1086 35.0933 21.5038 36.6148 23.7922 37.293C25.9922 37.9449 28.3476 37.8424 30.4826 37.002C32.6175 36.1614 34.4102 34.6308 35.5754 32.6543C36.7404 30.6778 37.2116 28.3686 36.9133 26.0938L40.3127 25.6475ZM38.2727 20.5693L35.1526 21.5498C33.8405 19.6674 31.9361 18.2774 29.7434 17.6016C27.5508 16.9259 25.1949 17.0023 23.051 17.8193C20.907 18.6365 19.0971 20.1476 17.9104 22.1113C16.7238 24.075 16.2286 26.3793 16.5022 28.6572L13.0979 29.0664C12.733 26.0289 13.3945 22.9563 14.9768 20.3379C16.559 17.7196 18.9717 15.7057 21.8303 14.6162C24.6889 13.5268 27.8297 13.4242 30.7531 14.3252C32.2327 14.7812 33.614 15.4814 34.844 16.3867V13.7168H38.2727V20.5693Z" fill="#0981E3"/>
</svg>
