<svg width="54" height="54" viewBox="0 0 54 54" fill="none" xmlns="http://www.w3.org/2000/svg">
<path d="M38.5714 0H15.4286C6.90761 0 0 6.90761 0 15.4286V38.5714C0 47.0924 6.90761 54 15.4286 54H38.5714C47.0924 54 54 47.0924 54 38.5714V15.4286C54 6.90761 47.0924 0 38.5714 0Z" fill="#7B808A"/>
<path d="M36.0998 21.5C36.0998 21.5 35.7416 21.5 35.2998 21.5H17.6998C17.2579 21.5 17.6998 21.5 16.8998 21.5V33.5C16.8998 33.9418 16.8998 33.5 16.8998 34.3H36.0998C36.0998 34.3 36.0998 33.9418 36.0998 33.5V21.5ZM23.2998 25.5V30.3H20.0998V25.5H23.2998ZM32.8998 25.5V30.3H29.6998V25.5H32.8998ZM39.2998 26.3H42.4998V29.5H39.2998V33.5C39.2998 35.7091 37.5089 37.5 35.2998 37.5H17.6998C15.4906 37.5 13.6998 35.7091 13.6998 33.5V29.5H10.4998V26.3H13.6998V22.3C13.6998 20.0909 15.4906 18.3 17.6998 18.3H24.8998V13.5H28.0998V18.3H35.2998C37.5089 18.3 39.2998 20.0909 39.2998 22.3V26.3Z" fill="white"/>
</svg>
