<svg width="54" height="54" viewBox="0 0 54 54" fill="none" xmlns="http://www.w3.org/2000/svg">
<path d="M38.5714 0H15.4286C6.90761 0 0 6.90761 0 15.4286V38.5714C0 47.0924 6.90761 54 15.4286 54H38.5714C47.0924 54 54 47.0924 54 38.5714V15.4286C54 6.90761 47.0924 0 38.5714 0Z" fill="#7B808A"/>
<path d="M37.4648 31.244C33.8441 32.4729 30.4219 33.1068 26.9648 33.1068C23.5078 33.1068 20.0856 32.4729 16.4648 31.244V34.2996C16.4648 34.6193 16.4648 34.8576 16.4648 34.8576C24.3237 39.232 33.2478 37.0727 37.4648 34.8576C37.4648 34.8576 37.4648 34.6277 37.4648 34.2996V31.244ZM37.4648 24.044C28.6926 26.2782 20.9423 25.3749 16.4648 24.1517V27.5287C20.2382 28.9293 23.622 29.6068 26.9648 29.6068C30.3077 29.6068 33.6915 28.9293 37.4648 27.5287V24.044ZM40.9648 34.2996C40.9648 35.758 40.229 37.2442 38.791 37.9996C33.9901 40.5216 24.3724 43.1632 15.0959 37.9996C13.7089 37.2275 12.9648 35.7663 12.9648 34.2996V19.546C12.9648 18.2085 13.5883 16.7773 14.9404 15.9998C19.4122 13.4291 28.9343 10.9923 38.6816 15.9486C40.1491 16.6948 40.9648 18.2045 40.9648 19.7408V34.2996ZM16.4648 20.503C20.19 21.7059 28.2326 22.9915 37.4648 20.4227V19.7408C37.4648 19.4099 37.2926 19.1693 37.0957 19.0692C28.6209 14.7596 20.3644 16.9187 16.6836 19.035C16.6031 19.0817 16.4648 19.232 16.4648 19.546V20.503Z" fill="white"/>
</svg>
