<svg width="54" height="54" viewBox="0 0 54 54" fill="none" xmlns="http://www.w3.org/2000/svg">
<path d="M38.5714 0H15.4286C6.90761 0 0 6.90761 0 15.4286V38.5714C0 47.0924 6.90761 54 15.4286 54H38.5714C47.0924 54 54 47.0924 54 38.5714V15.4286C54 6.90761 47.0924 0 38.5714 0Z" fill="#7B808A"/>
<path d="M34.5002 28.5948V21.9998H18.4998V28.6201C18.4998 28.9381 18.6343 29.1608 18.7804 29.2713C21.4961 31.325 24.0786 32.1495 26.4863 32.1333C29.0629 32.116 31.6586 31.1327 34.2085 29.2561C34.3608 29.1441 34.5002 28.9176 34.5002 28.5948ZM38.4995 28.5948C38.4995 30.0527 37.8613 31.5353 36.5793 32.4787C34.0609 34.332 31.3053 35.5976 28.3842 35.997C28.0955 38.2684 27.2481 40.1785 25.7389 41.5853C23.8591 43.3376 21.2856 44.0007 18.4998 44.0007V40.0003C20.7139 40.0003 22.1405 39.4695 23.0106 38.6585C23.6068 38.1027 24.101 37.2632 24.3414 35.9787C21.6512 35.5872 18.9739 34.432 16.368 32.4615C15.1171 31.5155 14.4995 30.0536 14.4995 28.6201V19.9997C14.4997 18.8953 15.3952 18.0005 16.4997 18.0005H18.4998V12H22.5002V18.0005H30.4998V12H34.5002V18.0005H36.5004C37.6046 18.0007 38.4993 18.8954 38.4995 19.9997V28.5948Z" fill="white"/>
</svg>
