<svg width="54" height="54" viewBox="0 0 54 54" fill="none" xmlns="http://www.w3.org/2000/svg">
<path d="M38.5714 0H15.4286C6.90761 0 0 6.90761 0 15.4286V38.5714C0 47.0924 6.90761 54 15.4286 54H38.5714C47.0924 54 54 47.0924 54 38.5714V15.4286C54 6.90761 47.0924 0 38.5714 0Z" fill="#7B808A"/>
<path d="M36.125 15.75C38.5412 15.75 40.5 17.7088 40.5 20.125V32.375C40.5 34.7912 38.5412 36.75 36.125 36.75H35.25V42H17.75V36.75H16.875C14.4588 36.75 12.5 34.7912 12.5 32.375V20.125C12.5 17.7088 14.4588 15.75 16.875 15.75H36.125ZM21.25 38.5H31.75V31.5H21.25V38.5ZM16 19.25C16 19.25 16 19.6418 16 20.125V32.375C16 32.8582 16 33.25 16 33.25H17.75V28H35.25V33.25H37C37 33.25 37 32.8582 37 32.375V20.125C37 19.6418 37 19.25 37 19.25H16ZM32.625 10.5C35.0412 10.5 37 12.4588 37 14.875H33.5C33.5 14.3918 33.5 14 33.5 14H19.5C19.5 14 19.5 14.3918 19.5 14.875H16C16 12.4588 17.9588 10.5 20.375 10.5H32.625Z" fill="white"/>
</svg>
