<svg width="54" height="54" viewBox="0 0 54 54" fill="none" xmlns="http://www.w3.org/2000/svg">
<path d="M38.5714 0H15.4286C6.90761 0 0 6.90761 0 15.4286V38.5714C0 47.0924 6.90761 54 15.4286 54H38.5714C47.0924 54 54 47.0924 54 38.5714V15.4286C54 6.90761 47.0924 0 38.5714 0Z" fill="#7B808A"/>
<path d="M37 17.375C37 16.8918 37 16.5 37 16.5H16C16 16.5 16 16.8918 16 17.375V29.625C16 30.1082 16 29.625 16 30.5H37C37 30.5 37 30.1082 37 29.625V17.375ZM40.5 29.625C40.5 32.0412 38.5412 34 36.125 34H28.25V37.5H37V41H16V37.5H24.75V34H16.875C14.4588 34 12.5 32.0412 12.5 29.625V17.375C12.5 14.9588 14.4588 13 16.875 13H36.125C38.5412 13 40.5 14.9588 40.5 17.375V29.625Z" fill="white"/>
</svg>
