<svg width="54" height="54" viewBox="0 0 54 54" fill="none" xmlns="http://www.w3.org/2000/svg">
<path d="M38.5714 0H15.4286C6.90761 0 0 6.90761 0 15.4286V38.5714C0 47.0924 6.90761 54 15.4286 54H38.5714C47.0924 54 54 47.0924 54 38.5714V15.4286C54 6.90761 47.0924 0 38.5714 0Z" fill="#7B808A"/>
<path d="M25.6174 26.9385C29.6812 26.7246 34.1134 27.7323 38.8809 30.4692C40.2387 31.2487 40.9997 32.6949 41 34.1812V36.5361C40.9996 38.9519 39.0408 40.9109 36.625 40.9111H17.375C14.9589 40.9111 13.0001 38.9522 13 36.5361V34.1008C13 32.6953 13.6788 31.3042 14.95 30.5017C18.0036 28.5744 21.5652 27.1519 25.6174 26.9385ZM25.802 30.4333C22.4795 30.6083 19.4903 31.7749 16.8179 33.4617C16.6439 33.5717 16.5 33.7973 16.5 34.1008V37.4111C17.375 37.4111 16.8918 37.4111 17.375 37.4111H36.625C37.108 37.4111 37.5 37.4111 37.5 37.4111V34.1812C37.4997 33.8682 37.3404 33.6226 37.1377 33.5061C32.8817 31.0628 29.1133 30.259 25.802 30.4333ZM27 11.1611C30.8659 11.1611 33.9999 14.2952 34 18.1611C34 22.0271 30.866 25.1611 27 25.1611C23.134 25.1611 20 22.0271 20 18.1611C20.0001 14.2952 23.1341 11.1611 27 11.1611ZM27 14.6611C25.0671 14.6611 23.5001 16.2282 23.5 18.1611C23.5 20.0941 25.067 21.6611 27 21.6611C28.933 21.6611 30.5 20.0941 30.5 18.1611C30.4999 16.2282 28.9329 14.6611 27 14.6611Z" fill="white"/>
</svg>
