<svg width="54" height="54" viewBox="0 0 54 54" fill="none" xmlns="http://www.w3.org/2000/svg">
<path d="M38.5714 0H15.4286C6.90761 0 0 6.90761 0 15.4286V38.5714C0 47.0924 6.90761 54 15.4286 54H38.5714C47.0924 54 54 47.0924 54 38.5714V15.4286C54 6.90761 47.0924 0 38.5714 0Z" fill="#7B808A"/>
<path d="M37 25.75H16V35.5C16 34.625 16 35.9832 16 35.5H37V25.75ZM21.25 17.875V21.375H17.75V17.875H21.25ZM26.5 17.875V21.375H23V17.875H26.5ZM37 17.875C37 17.3918 37 17 37 17H16C16 17 16 17.3918 16 17.875V22.25H37V17.875ZM40.5 34.625C40.5 37.0412 38.5412 39 36.125 39H16.875C14.4588 39 12.5 37.0412 12.5 34.625V17.875C12.5 15.4588 14.4588 13.5 16.875 13.5H36.125C38.5412 13.5 40.5 15.4588 40.5 17.875V34.625Z" fill="white"/>
</svg>
