<svg width="54" height="54" viewBox="0 0 54 54" fill="none" xmlns="http://www.w3.org/2000/svg">
<path d="M38.5714 0L15.4286 0C6.90761 0 0 6.90761 0 15.4286L0 38.5714C0 47.0924 6.90761 54 15.4286 54H38.5714C47.0924 54 54 47.0924 54 38.5714V15.4286C54 6.90761 47.0924 0 38.5714 0Z" fill="#7B808A" fill-opacity="0.19"/>
<path d="M16.0004 33.5157L24.7504 37.2652V25.3211L16.0004 21.5716V33.5157ZM28.2504 25.3211V37.2652L37.0004 33.5157V21.5716L28.2504 25.3211ZM18.6903 18.9192L26.5004 22.2654L34.3087 18.9192L26.5004 15.5713L18.6903 18.9192ZM40.5004 34.6692C40.5004 35.3693 40.0825 36.0016 39.4391 36.2774L27.1891 41.5274C26.7491 41.7158 26.2517 41.7158 25.8116 41.5274L13.5616 36.2774C12.9182 36.0016 12.5004 35.3693 12.5004 34.6692V18.9192C12.5004 18.2192 12.9182 17.5868 13.5616 17.3111L25.8116 12.0611L25.9791 11.9995C26.3752 11.8759 26.8041 11.8962 27.1891 12.0611L39.4391 17.3111C40.0825 17.5868 40.5004 18.2192 40.5004 18.9192V34.6692Z" fill="#6B6F78"/>
</svg>
