<svg width="54" height="54" viewBox="0 0 54 54" fill="none" xmlns="http://www.w3.org/2000/svg">
<path d="M38.5714 0H15.4286C6.90761 0 0 6.90761 0 15.4286V38.5714C0 47.0924 6.90761 54 15.4286 54H38.5714C47.0924 54 54 47.0924 54 38.5714V15.4286C54 6.90761 47.0924 0 38.5714 0Z" fill="#7B808A" fill-opacity="0.19"/>
<path d="M12.5787 34.6249V26.7499H16.0789V34.6249C16.0789 35.1081 16.0789 34.9165 16.0789 35.4996H37.0785C37.0785 35.228 37.0785 35.1081 37.0785 34.6249V26.7499H40.5787V34.6249C40.5787 37.0411 38.62 38.9996 36.2038 38.9998H16.9535C14.5374 38.9996 12.5787 37.0411 12.5787 34.6249ZM37.0785 18.8748C37.0783 18.3918 37.0785 18.1296 37.0785 18.0002H16.0789C16.0789 18.147 16.079 18.3918 16.0789 18.8748V21.9302L26.5787 24.9289L37.0785 21.9302V18.8748ZM40.5787 24.57L27.0598 28.4327H26.0975L12.5787 24.57V18.8748C12.5788 16.4588 14.5375 14.5001 16.9535 14.5H36.2038C38.6199 14.5001 40.5785 16.4588 40.5787 18.8748V24.57Z" fill="#6B6F78"/>
</svg>
