<svg width="54" height="54" viewBox="0 0 54 54" fill="none" xmlns="http://www.w3.org/2000/svg">
<path d="M38.5714 0H15.4286C6.90761 0 0 6.90761 0 15.4286V38.5714C0 47.0924 6.90761 54 15.4286 54H38.5714C47.0924 54 54 47.0924 54 38.5714V15.4286C54 6.90761 47.0924 0 38.5714 0Z" fill="#06B58B" fill-opacity="0.1"/>
<path d="M34.8571 12C37.4213 12 39.5 14.0787 39.5 16.6429V40.1655L38.3429 40.9671C36.8792 41.9861 34.4055 41.9684 32.9601 40.9127C31.5326 39.8749 29.6177 39.8389 28.154 40.822L27.7931 41.0759C26.3656 42.0408 24.5216 42.0408 23.094 41.0759L22.7331 40.822C21.2694 39.8389 20.3158 39.9293 18.8883 40.9671C17.4431 42.0224 16.1203 41.9861 14.6571 40.9671L13.5 40.1655V16.6429C13.5 14.0787 15.5787 12 18.1429 12H34.8571ZM18.1429 15.7143C17.63 15.7143 18.1429 15.7143 17.2143 15.7143V37.6355H35.7857V15.7143C35.7857 15.7143 35.37 15.7143 34.8571 15.7143H18.1429ZM33.9286 34.2857H26.5V30.5714H33.9286V34.2857Z" fill="#1F876C"/>
</svg>
