<svg width="54" height="54" viewBox="0 0 54 54" fill="none" xmlns="http://www.w3.org/2000/svg">
<path d="M38.5714 0H15.4286C6.90761 0 0 6.90761 0 15.4286V38.5714C0 47.0924 6.90761 54 15.4286 54H38.5714C47.0924 54 54 47.0924 54 38.5714V15.4286C54 6.90761 47.0924 0 38.5714 0Z" fill="#06B58B" fill-opacity="0.1"/>
<path d="M32.6567 12.7637C34.9743 12.7637 36.853 14.6424 36.853 16.96V17.3419H33.496V16.1207H20.9071V36.2629H23.4249V39.6199H15.8716C13.554 39.6199 11.6753 37.7412 11.6753 35.4236V16.96C11.6753 14.6424 13.554 12.7637 15.8716 12.7637H32.6567ZM33.2747 30.1586C36.2043 29.9785 39.4075 30.7125 42.8508 32.7452C43.3617 33.047 43.6749 33.5961 43.6753 34.1893V37.9398C43.6753 38.8667 42.9237 39.6182 41.9968 39.6183L35.6122 39.6199H26.6721C25.7455 39.6197 24.9939 38.868 24.9936 37.9414V34.191C24.9937 33.6258 25.2785 33.0981 25.7509 32.7879C27.844 31.4145 30.3586 30.3381 33.2747 30.1586ZM15.0323 36.2629H17.5501V16.1207H15.0323V36.2629ZM40.3183 35.1761C37.7234 33.8076 35.4518 33.3878 33.4796 33.5091C31.6004 33.6249 29.8944 34.2378 28.3506 35.1286V36.2629H35.6122L40.3183 36.2613V35.1761ZM34.3353 18.6385C37.3779 18.6387 39.8459 21.1052 39.8462 24.1478C39.8462 27.1906 37.3781 29.6584 34.3353 29.6587C31.2925 29.6584 28.826 27.1906 28.826 24.1478C28.8263 21.1052 31.2927 18.6388 34.3353 18.6385ZM34.3353 21.9955C33.1468 21.9958 32.1833 22.9592 32.183 24.1478C32.183 25.3365 33.1466 26.3013 34.3353 26.3016C35.524 26.3014 36.4891 25.3366 36.4891 24.1478C36.4888 22.9592 35.5238 21.9957 34.3353 21.9955Z" fill="#048F6E"/>
</svg>
