<svg width="54" height="54" viewBox="0 0 54 54" fill="none" xmlns="http://www.w3.org/2000/svg">
<path d="M38.5714 0H15.4286C6.90761 0 0 6.90761 0 15.4286V38.5714C0 47.0924 6.90761 54 15.4286 54H38.5714C47.0924 54 54 47.0924 54 38.5714V15.4286C54 6.90761 47.0924 0 38.5714 0Z" fill="#06B58B" fill-opacity="0.1"/>
<path d="M39 35.5H42.5V39H39V42.5H35.5V39H32V35.5H35.5V32H39V35.5ZM25.3333 11.0273C29.1992 11.0274 32.3331 14.1615 32.3333 18.0273C32.3333 21.8933 29.1992 25.0273 25.3333 25.0273C21.4675 25.0271 18.3333 21.8932 18.3333 18.0273C18.3334 14.1616 21.4675 11.0276 25.3333 11.0273ZM25.3333 14.5273C23.4005 14.5276 21.8334 16.0946 21.8333 18.0273C21.8333 19.9602 23.4005 21.5271 25.3333 21.5273C27.2662 21.5273 28.8333 19.9603 28.8333 18.0273C28.8331 16.0945 27.2662 14.5274 25.3333 14.5273Z" fill="#1F876C"/>
<path d="M24.6292 25.8169C28.0347 25.7591 31.8474 26.7478 34.9873 29.8877L32.5127 32.3623C30.184 30.0337 27.3644 29.2715 24.689 29.3169C21.9712 29.3631 19.3887 30.3016 18 31.125V35.5C18.875 35.5 18.3919 35.5 18.875 35.5H30.25V39H18.875C16.4589 39 14.5003 37.041 14.5 34.625V31.4412C14.5001 30.2325 15.0158 28.8385 16.3269 28.0608C18.2066 26.946 21.267 25.8741 24.6292 25.8169Z" fill="#1F876C"/>
</svg>
