<svg width="54" height="54" viewBox="0 0 54 54" fill="none" xmlns="http://www.w3.org/2000/svg">
<path d="M38.5714 0H15.4286C6.90761 0 0 6.90761 0 15.4286V38.5714C0 47.0924 6.90761 54 15.4286 54H38.5714C47.0924 54 54 47.0924 54 38.5714V15.4286C54 6.90761 47.0924 0 38.5714 0Z" fill="#06B58B" fill-opacity="0.1"/>
<path d="M30.3416 21.9561H17.2166C16.7333 21.9561 16.3416 22.3478 16.3416 22.8311V35.0811C16.3416 35.5643 16.7333 35.9561 17.2166 35.9561H36.4666C36.9498 35.9561 37.3416 35.5643 37.3416 35.0811V18.4561C39.2745 18.4561 40.8416 20.0231 40.8416 21.9561V35.0811C40.8416 37.4973 38.8828 39.4561 36.4666 39.4561H17.2166C14.8003 39.4561 12.8416 37.4973 12.8416 35.0811V22.8311C12.8416 20.4148 14.8003 18.4561 17.2166 18.4561H30.3416V21.9561ZM26.8416 23.7061C29.741 23.7061 32.0916 26.0566 32.0916 28.9561C32.0916 31.8555 29.741 34.2061 26.8416 34.2061C23.9421 34.2061 21.5916 31.8555 21.5916 28.9561C21.5916 26.0566 23.9421 23.7061 26.8416 23.7061ZM26.8416 27.2061C25.8751 27.2061 25.0916 27.9896 25.0916 28.9561C25.0916 29.9226 25.8751 30.7061 26.8416 30.7061C27.8081 30.7061 28.5916 29.9226 28.5916 28.9561C28.5916 27.9896 27.8081 27.2061 26.8416 27.2061ZM40.0623 13.5L38.1208 16.4121L35.5916 14.7253V21.9561H32.0916V14.7253L29.5623 16.4121L27.6208 13.5L32.8708 10H34.8123L40.0623 13.5Z" fill="#1F876C"/>
</svg>
