<svg width="54" height="54" viewBox="0 0 54 54" fill="none" xmlns="http://www.w3.org/2000/svg">
<path d="M38.5714 0H15.4286C6.90761 0 0 6.90761 0 15.4286V38.5714C0 47.0924 6.90761 54 15.4286 54H38.5714C47.0924 54 54 47.0924 54 38.5714V15.4286C54 6.90761 47.0924 0 38.5714 0Z" fill="#06B58B" fill-opacity="0.1"/>
<path d="M26.2365 20.5725C28.7386 20.5729 30.7677 22.6017 30.7679 25.1039V31.4478C30.7679 31.4478 31.1736 31.4478 31.6741 31.4478H36.2055C38.7077 31.4483 40.7367 33.477 40.7369 35.9792V40.5106H37.1118V35.073C36.2045 35.0731 36.7056 35.0734 36.2055 35.073H31.6741C29.1715 35.073 27.1428 33.0442 27.1428 30.5416L27.1418 24.1978C26.2355 24.1978 26.7366 24.198 26.2365 24.1976H25.3302C24.8298 24.1976 25.3292 24.1978 24.4239 24.1976V40.5106H20.7988V25.1039C20.799 22.6015 22.8277 20.5725 25.3302 20.5725H26.2365ZM22.7512 11.9346C25.0255 11.3716 27.4033 11.3677 29.6793 11.924C31.9558 12.4806 34.0649 13.5819 35.8232 15.1313C37.5814 16.6808 38.939 18.6338 39.7775 20.8221C40.6159 23.0103 40.9103 25.3696 40.6378 27.6971L37.0375 27.2758C37.2419 25.5302 37.0201 23.7607 36.3914 22.1196C35.7624 20.4782 34.7452 19.0123 33.4265 17.8502C32.1079 16.6883 30.5262 15.8639 28.819 15.4464C27.1118 15.0291 25.3281 15.0311 23.6221 15.4535C21.9161 15.876 20.3369 16.7073 19.0217 17.8732C17.7067 19.0391 16.6932 20.5067 16.0692 22.1497C15.4454 23.7927 15.2294 25.5627 15.4391 27.3077C15.6489 29.0528 16.279 30.7215 17.2746 32.17L14.2868 34.2233C12.9594 32.2921 12.1203 30.068 11.8405 27.7413C11.5608 25.4144 11.8493 23.0539 12.6813 20.8628C13.5133 18.6721 14.8628 16.7143 16.6162 15.1596C18.3698 13.6051 20.4765 12.498 22.7512 11.9346Z" fill="#1F876C"/>
</svg>
