<svg width="54" height="54" viewBox="0 0 54 54" fill="none" xmlns="http://www.w3.org/2000/svg">
<path d="M38.5714 0H15.4286C6.90761 0 0 6.90761 0 15.4286V38.5714C0 47.0924 6.90761 54 15.4286 54H38.5714C47.0924 54 54 47.0924 54 38.5714V15.4286C54 6.90761 47.0924 0 38.5714 0Z" fill="#06B58B" fill-opacity="0.1"/>
<path d="M33.7692 27.5385C37.2104 27.5385 40 30.3281 40 33.7692C40 37.2104 37.2104 40 33.7692 40C30.3281 40 27.5385 37.2104 27.5385 33.7692C27.5385 30.3281 30.3281 27.5385 33.7692 27.5385ZM40 15.0769V25.4615H35.8462V20.0907L27.2342 28.7027L18.6223 37.3146L15.6854 34.3777L32.9093 17.1538H27.5385V13H37.9231L40 15.0769ZM33.7692 31.6923C32.6222 31.6923 31.6923 32.6222 31.6923 33.7692C31.6923 34.9163 32.6222 35.8462 33.7692 35.8462C34.9163 35.8462 35.8462 34.9163 35.8462 33.7692C35.8462 32.6222 34.9163 31.6923 33.7692 31.6923ZM19.2308 13C22.6719 13 25.4615 15.7896 25.4615 19.2308C25.4615 22.6719 22.6719 25.4615 19.2308 25.4615C15.7896 25.4615 13 22.6719 13 19.2308C13 15.7896 15.7896 13 19.2308 13ZM19.2308 17.1538C18.0837 17.1538 17.1538 18.0837 17.1538 19.2308C17.1538 20.3778 18.0837 21.3077 19.2308 21.3077C20.3778 21.3077 21.3077 20.3778 21.3077 19.2308C21.3077 18.0837 20.3778 17.1538 19.2308 17.1538Z" fill="#1F876C"/>
</svg>
