<svg width="54" height="54" viewBox="0 0 54 54" fill="none" xmlns="http://www.w3.org/2000/svg">
<path d="M38.5714 0H15.4286C6.90761 0 0 6.90761 0 15.4286V38.5714C0 47.0924 6.90761 54 15.4286 54H38.5714C47.0924 54 54 47.0924 54 38.5714V15.4286C54 6.90761 47.0924 0 38.5714 0Z" fill="#06B58B"/>
<path d="M40.3733 26.6447V29.2786L34.3053 34.48L32.0488 31.8461L34.5575 29.6958H26.2424V26.2276H34.5575L32.0488 24.0772L34.3053 21.4452L40.3733 26.6447ZM36.6453 18.4264C36.6453 17.9479 36.2571 17.5602 35.7787 17.5598H16.7062C16.2278 17.5602 15.8396 17.9479 15.8396 18.4264V35.7638C15.8398 36.2421 16.2279 36.6299 16.7062 36.6304H35.7787C36.257 36.6299 36.6451 36.2421 36.6453 35.7638V34.8972H40.1116V35.7638C40.1115 38.1572 38.172 40.0982 35.7787 40.0986H16.7062C14.3129 40.0982 12.3734 38.1572 12.3733 35.7638V18.4264C12.3733 16.0329 14.3128 14.092 16.7062 14.0916H17.5747V12.3584H21.041V14.0916H31.4439V12.3584H34.9102V14.0916H35.7787C38.1721 14.092 40.1116 16.0329 40.1116 18.4264V21.0261H36.6453V18.4264Z" fill="white"/>
</svg>
