<svg width="54" height="54" viewBox="0 0 54 54" fill="none" xmlns="http://www.w3.org/2000/svg">
<path d="M38.5714 0H15.4286C6.90761 0 0 6.90761 0 15.4286V38.5714C0 47.0924 6.90761 54 15.4286 54H38.5714C47.0924 54 54 47.0924 54 38.5714V15.4286C54 6.90761 47.0924 0 38.5714 0Z" fill="#06B58B"/>
<path d="M26.4998 28.5C29.5854 28.5 32.1369 30.7818 32.5615 33.75H40.4998V37.25H32.0352C31.0521 39.3193 28.9431 40.75 26.4998 40.75C24.0564 40.75 21.9474 39.3193 20.9644 37.25H12.4998V33.75H20.438C20.8626 30.7818 23.4142 28.5 26.4998 28.5ZM26.4998 32C25.05 32 23.8748 33.1753 23.8748 34.625C23.8748 36.0747 25.05 37.25 26.4998 37.25C27.9495 37.25 29.1248 36.0747 29.1248 34.625C29.1248 33.1753 27.9495 32 26.4998 32ZM26.4998 11C30.3657 11 33.4998 14.134 33.4998 18C33.4998 19.1935 32.983 20.3572 32.4419 21.2864C31.8757 22.2586 31.145 23.204 30.4526 24.0105C29.7546 24.8236 29.0612 25.5349 28.5454 26.0408C28.2866 26.2946 28.0702 26.4997 27.9165 26.6423C27.8396 26.7137 27.7767 26.769 27.7336 26.8081C27.7123 26.8275 27.6961 26.8434 27.6841 26.8542C27.6781 26.8597 27.6723 26.863 27.6687 26.8662C27.6669 26.8678 27.6653 26.8713 27.6653 26.8713L27.6636 26.873H25.3359L25.3342 26.8713C25.3342 26.8713 25.3326 26.8678 25.3308 26.8662C25.3272 26.863 25.3215 26.8597 25.3154 26.8542C25.3034 26.8434 25.2872 26.8275 25.2659 26.8081C25.2228 26.769 25.16 26.7137 25.083 26.6423C24.9293 26.4997 24.7129 26.2946 24.4541 26.0408C23.9383 25.5349 23.245 24.8236 22.5469 24.0105C21.8545 23.204 21.1238 22.2586 20.5576 21.2864C20.0165 20.3572 19.4998 19.1935 19.4998 18C19.4998 14.134 22.6338 11 26.4998 11ZM26.4998 14.5C24.5668 14.5 22.9998 16.067 22.9998 18C22.9998 18.2562 23.1393 18.7633 23.5825 19.5244C24.0006 20.2424 24.5826 21.0084 25.2026 21.7307C25.651 22.253 26.1066 22.7288 26.4998 23.1287C26.8929 22.7288 27.3485 22.253 27.7969 21.7307C28.4169 21.0084 28.9989 20.2424 29.417 19.5244C29.8602 18.7633 29.9998 18.2562 29.9998 18C29.9998 16.067 28.4328 14.5 26.4998 14.5Z" fill="white"/>
</svg>
