<svg width="54" height="54" viewBox="0 0 54 54" fill="none" xmlns="http://www.w3.org/2000/svg">
<path d="M38.5714 0H15.4286C6.90761 0 0 6.90761 0 15.4286V38.5714C0 47.0924 6.90761 54 15.4286 54H38.5714C47.0924 54 54 47.0924 54 38.5714V15.4286C54 6.90761 47.0924 0 38.5714 0Z" fill="#0289F7" fill-opacity="0.09"/>
<path d="M38.8797 9.71997C41.8621 9.71997 44.2797 12.1376 44.2797 15.12V38.88C44.2797 41.8623 41.8621 44.28 38.8797 44.28H15.1197C12.1374 44.28 9.71973 41.8623 9.71973 38.88V15.12C9.71973 12.1376 12.1374 9.71997 15.1197 9.71997H38.8797ZM14.0397 39.96H39.9597V24.84H14.0397V39.96ZM22.6797 37.8H18.3597V33.48H22.6797V37.8ZM29.1597 37.8H24.8397V33.48H29.1597V37.8ZM35.6397 37.8H31.3197V33.48H35.6397V37.8ZM22.6797 31.32H18.3597V27H22.6797V31.32ZM29.1597 31.32H24.8397V27H29.1597V31.32ZM35.6397 31.32H31.3197V27H35.6397V31.32ZM14.0397 20.52H39.9597V14.04H14.0397V20.52ZM37.7997 19.44H31.3197V15.12H37.7997V19.44Z" fill="#0981E3"/>
</svg>
