<svg width="54" height="54" viewBox="0 0 54 54" fill="none" xmlns="http://www.w3.org/2000/svg">
<path d="M38.5714 0H15.4286C6.90761 0 0 6.90761 0 15.4286V38.5714C0 47.0924 6.90761 54 15.4286 54H38.5714C47.0924 54 54 47.0924 54 38.5714V15.4286C54 6.90761 47.0924 0 38.5714 0Z" fill="#0289F7" fill-opacity="0.09"/>
<path d="M38.533 30.876C34.5428 32.2303 30.7713 32.9288 26.9616 32.9288C23.1518 32.9288 19.3803 32.2303 15.3901 30.876V34.2434C15.3901 34.5957 15.3901 34.8584 15.3901 34.8584C24.0509 39.679 33.8857 37.2995 38.533 34.8584C38.533 34.8584 38.533 34.605 38.533 34.2434V30.876ZM38.533 22.9413C28.8656 25.4035 20.3244 24.408 15.3901 23.06V26.7815C19.5485 28.325 23.2776 29.0717 26.9616 29.0717C30.6455 29.0717 34.3746 28.325 38.533 26.7815V22.9413ZM42.3901 34.2434C42.3901 35.8506 41.5791 37.4884 39.9945 38.3209C34.7037 41.1003 24.1046 44.0114 13.8815 38.3209C12.353 37.4701 11.533 35.8598 11.533 34.2434V17.9843C11.533 16.5103 12.22 14.9331 13.7102 14.0763C18.6383 11.2432 29.1319 8.55775 39.8739 14.0198C41.4912 14.8422 42.3901 16.5059 42.3901 18.199V34.2434ZM15.3901 19.039C19.4954 20.3646 28.3586 21.7814 38.533 18.9505V18.199C38.533 17.8343 38.3432 17.5692 38.1262 17.4588C28.7866 12.7096 19.6876 15.0889 15.6312 17.4212C15.5425 17.4726 15.3901 17.6382 15.3901 17.9843V19.039Z" fill="#0981E3"/>
</svg>
