<svg width="54" height="54" viewBox="0 0 54 54" fill="none" xmlns="http://www.w3.org/2000/svg">
<path d="M38.5714 0H15.4286C6.90761 0 0 6.90761 0 15.4286V38.5714C0 47.0924 6.90761 54 15.4286 54H38.5714C47.0924 54 54 47.0924 54 38.5714V15.4286C54 6.90761 47.0924 0 38.5714 0Z" fill="#0289F7" fill-opacity="0.09"/>
<path d="M25.7301 11.5715C27.1157 11.5717 28.4347 12.1678 29.3499 13.2082L42.897 28.6142C44.6764 30.6379 44.4516 33.7267 42.3979 35.4715L34.5197 42.1631C32.5993 43.7944 29.7465 43.6726 27.9731 41.8825L13.9307 27.7064C13.0369 26.8037 12.5353 25.5848 12.5352 24.3144V16.393C12.5352 13.7302 14.6938 11.5715 17.3566 11.5715H25.7301ZM22.8466 17.7697V21.6268H18.6542V17.7697H22.8466ZM16.3923 24.3144C16.3924 24.5683 16.4925 24.812 16.671 24.9924L31.8209 39.5358L40.4994 31.8215C40.4994 31.8215 39.891 31.2619 39.5352 30.8572L26.4533 15.7564C26.2703 15.5484 26.007 15.4289 25.7301 15.4287H17.3566C16.824 15.4287 16.3923 15.8604 16.3923 16.393V24.3144Z" fill="#0981E3"/>
</svg>
