<svg width="28" height="28" viewBox="0 0 28 28" fill="none" xmlns="http://www.w3.org/2000/svg">
<path d="M20 0H8C3.58172 0 0 3.58172 0 8V20C0 24.4183 3.58172 28 8 28H20C24.4183 28 28 24.4183 28 20V8C28 3.58172 24.4183 0 20 0Z" fill="#0289F7" fill-opacity="0.1"/>
<path d="M14 14H20V15C20 16.3844 19.5894 17.7376 18.8203 18.8887C18.0512 20.0398 16.9577 20.937 15.6787 21.4668C14.3997 21.9966 12.9925 22.1352 11.6348 21.8652C10.2769 21.5951 9.02877 20.9292 8.0498 19.9502C7.07084 18.9712 6.40486 17.7231 6.13477 16.3652C5.86476 15.0075 6.00343 13.6003 6.5332 12.3213C7.06302 11.0422 7.96021 9.94884 9.11133 9.17969C10.2624 8.41063 11.6156 8 13 8H14V14ZM12 10.1035C11.3682 10.2326 10.7631 10.481 10.2217 10.8428C9.39962 11.3922 8.75924 12.1734 8.38086 13.0869C8.00249 14.0005 7.90279 15.0057 8.0957 15.9756C8.28864 16.9455 8.7656 17.8359 9.46484 18.5352C10.1641 19.2344 11.0545 19.7114 12.0244 19.9043C12.9942 20.0972 13.9995 19.9975 14.9131 19.6191C15.8266 19.2408 16.6078 18.6004 17.1572 17.7783C17.519 17.2369 17.7665 16.6317 17.8955 16H12V10.1035ZM16 5C16.9192 5.00001 17.8294 5.18143 18.6787 5.5332C19.5279 5.88499 20.3002 6.39982 20.9502 7.0498C21.6002 7.69979 22.115 8.47205 22.4668 9.32129C22.8186 10.1706 23 11.0808 23 12V13H15V5H16ZM17 11H20.8984C20.8348 10.6882 20.7415 10.3824 20.6191 10.0869C20.3679 9.4803 19.9994 8.92913 19.5352 8.46484C19.0709 8.00056 18.5197 7.63213 17.9131 7.38086C17.6176 7.25847 17.3119 7.16425 17 7.10059V11Z" fill="#0981E3"/>
</svg>
