<svg width="28" height="28" viewBox="0 0 28 28" fill="none" xmlns="http://www.w3.org/2000/svg">
<path d="M20 0H8C3.58172 0 0 3.58172 0 8V20C0 24.4183 3.58172 28 8 28H20C24.4183 28 28 24.4183 28 20V8C28 3.58172 24.4183 0 20 0Z" fill="#0289F7" fill-opacity="0.1"/>
<path d="M14.9766 5.37109C15.3561 5.37109 15.7077 5.55711 15.9219 5.8623L16.0049 6L16.0859 6.1416C16.5179 6.82612 17.3644 7.14096 18.1475 6.8877C18.56 6.75423 19.0126 6.86341 19.3193 7.16992L20.0107 7.86035L20.7012 8.55078C21.0079 8.85749 21.1169 9.31096 20.9834 9.72363C20.7134 10.5589 21.0895 11.4667 21.8711 11.8662C22.2571 12.0637 22.5 12.4609 22.5 12.8945V14.8477C22.5 15.2813 22.2571 15.6785 21.8711 15.876C21.0895 16.2755 20.7133 17.1833 20.9834 18.0186C21.1168 18.4311 21.0076 18.8837 20.7012 19.1904L20.0107 19.8818C20.0047 19.8879 19.9984 19.8935 19.9922 19.8994L19.2617 20.5928C18.9544 20.8847 18.5111 20.9848 18.1084 20.8525C17.2957 20.5859 16.4101 20.9505 16.0205 21.7119L16.0049 21.7422C15.8076 22.1282 15.4101 22.3711 14.9766 22.3711H13.0234C12.5898 22.3711 12.1926 22.1282 11.9951 21.7422C11.5956 20.9606 10.6878 20.5845 9.85254 20.8545C9.43986 20.988 8.98639 20.879 8.67969 20.5723L7.98926 19.8818L7.29883 19.1904C6.99232 18.8837 6.88313 18.4311 7.0166 18.0186C7.28672 17.1834 6.91053 16.2755 6.12891 15.876C5.74288 15.6785 5.5 15.2813 5.5 14.8477V12.8936C5.50001 12.4569 5.74628 12.0618 6.12891 11.8662C6.90335 11.4703 7.27416 10.5648 7.00195 9.75C6.86374 9.33575 6.97146 8.87913 7.28027 8.57031L7.98926 7.86035L8.68066 7.16992L8.80176 7.06445C9.05703 6.872 9.3814 6.79339 9.69629 6.84863L9.85254 6.8877L10.0098 6.93066C10.7992 7.10906 11.6205 6.7328 11.9951 6L12.0781 5.8623C12.2923 5.55711 12.6439 5.37109 13.0234 5.37109H14.9766ZM13.498 7.37109C12.6571 8.56432 11.1971 9.16812 9.75879 8.91895L9.40332 9.27441L9.03223 9.64453C9.28786 11.0753 8.6829 12.5304 7.5 13.3672V14.373C8.69294 15.2138 9.29664 16.6733 9.04785 18.1113L9.40332 18.4678L9.75879 18.8223C11.1971 18.5732 12.6572 19.1779 13.498 20.3711H14.4971C15.3276 19.1733 16.7863 18.5679 18.2197 18.8232L18.6143 18.4492L18.9512 18.1113C18.7025 16.6733 19.3071 15.2137 20.5 14.373V13.3682C19.3071 12.5272 18.7021 11.068 18.9512 9.62988L18.5967 9.27441L18.2402 8.91895C16.8022 9.16773 15.3427 8.56404 14.502 7.37109H13.498ZM14 10.3711C15.933 10.3711 17.5 11.9381 17.5 13.8711C17.5 15.8041 15.933 17.3711 14 17.3711C12.067 17.3711 10.5 15.8041 10.5 13.8711C10.5 11.9381 12.067 10.3711 14 10.3711ZM14 12.3711C13.1716 12.3711 12.5 13.0427 12.5 13.8711C12.5 14.6995 13.1716 15.3711 14 15.3711C14.8284 15.3711 15.5 14.6995 15.5 13.8711C15.5 13.0427 14.8284 12.3711 14 12.3711Z" fill="#0981E3"/>
</svg>
