<svg width="54" height="54" viewBox="0 0 54 54" fill="none" xmlns="http://www.w3.org/2000/svg">
<path d="M38.5714 0H15.4286C6.90761 0 0 6.90761 0 15.4286V38.5714C0 47.0924 6.90761 54 15.4286 54H38.5714C47.0924 54 54 47.0924 54 38.5714V15.4286C54 6.90761 47.0924 0 38.5714 0Z" fill="#0289F7" fill-opacity="0.09"/>
<path d="M33.5156 13.5002C34.7942 13.5002 36.0206 14.0083 36.9248 14.9124L41.0166 19.0042C41.9204 19.9083 42.4287 21.1349 42.4287 22.4133V37.6077C42.4284 40.27 40.2698 42.4287 37.6074 42.429H13.5V38.5715H37.6074C38.1396 38.5713 38.571 38.1398 38.5713 37.6077V22.4133C38.5713 22.1577 38.4698 21.9115 38.2891 21.7307L34.1973 17.6399C34.0165 17.4592 33.7712 17.3577 33.5156 17.3577H30.8574V13.5002H33.5156ZM24.6895 13.5002H28.9277V17.3577H24.6895V22.179H25.0703C26.753 22.179 28.3803 22.8233 29.5908 23.9905C30.8036 25.16 31.4989 26.7613 31.499 28.4465C31.4989 30.1318 30.8036 31.7341 29.5908 32.9036C28.3804 34.0704 26.7528 34.7151 25.0703 34.7151H24.6895V37.3997H20.832V34.7151H16.0381V30.8577H20.832V26.0364H20.249C18.5666 26.0362 16.9389 25.3918 15.7285 24.2249C14.5158 23.0554 13.8204 21.453 13.8203 19.7678C13.8204 18.0828 14.516 16.4812 15.7285 15.3118C16.9389 14.1447 18.5665 13.5004 20.249 13.5002H20.832V11.5715H24.6895V13.5002ZM24.6895 30.8577H25.0703C25.7742 30.8577 26.4368 30.5871 26.9141 30.1272C27.3888 29.6694 27.6415 29.0626 27.6416 28.4465C27.6415 27.8305 27.3887 27.2247 26.9141 26.7668C26.4368 26.3067 25.7744 26.0364 25.0703 26.0364H24.6895V30.8577ZM20.249 17.3577C19.5451 17.3578 18.8825 17.628 18.4053 18.0881C17.9309 18.5459 17.6778 19.152 17.6777 19.7678C17.6779 20.3838 17.9306 20.9907 18.4053 21.4485C18.8824 21.9085 19.5451 22.1788 20.249 22.179H20.832V17.3577H20.249Z" fill="#0981E3"/>
</svg>
