<svg width="54" height="54" viewBox="0 0 54 54" fill="none" xmlns="http://www.w3.org/2000/svg">
<path d="M38.5714 0H15.4286C6.90761 0 0 6.90761 0 15.4286V38.5714C0 47.0924 6.90761 54 15.4286 54H38.5714C47.0924 54 54 47.0924 54 38.5714V15.4286C54 6.90761 47.0924 0 38.5714 0Z" fill="#0289F7" fill-opacity="0.09"/>
<path d="M39.0195 24.2452L32.2231 27.924L29.3755 26.228V23.8486L22.655 27.8818L19.7335 26.228V14.656H15.8755V34.906C15.8755 35.4382 15.8755 35.2851 15.8755 35.87H39.0195C39.0195 34.906 39.0195 35.4382 39.0195 34.906V24.2452ZM23.5895 22.8214L30.312 18.7883C30.9078 18.4308 31.6501 18.4227 32.2548 18.765C32.8591 19.1074 33.2334 19.7474 33.2335 20.442V22.9901L40.0299 19.3135C40.6274 18.9905 41.3512 19.006 41.9347 19.3536C42.5184 19.7014 42.8755 20.332 42.8755 21.0115V34.906C42.8755 37.5685 40.7179 39.7275 38.0555 39.728H16.8395C14.1771 39.7275 12.0195 37.5685 12.0195 34.906V13.114C12.0195 11.8359 13.0554 10.8 14.3335 10.8H21.2755C22.5536 10.8 23.5895 11.8359 23.5895 13.114V22.8214Z" fill="#0981E3"/>
</svg>
