<svg width="54" height="54" viewBox="0 0 54 54" fill="none" xmlns="http://www.w3.org/2000/svg">
<path d="M38.5714 0H15.4286C6.90761 0 0 6.90761 0 15.4286V38.5714C0 47.0924 6.90761 54 15.4286 54H38.5714C47.0924 54 54 47.0924 54 38.5714V15.4286C54 6.90761 47.0924 0 38.5714 0Z" fill="#0289F7" fill-opacity="0.09"/>
<path d="M37.2997 12.6514C39.9616 12.6519 42.1188 14.8095 42.1196 17.4713V18.4374C42.1193 19.8637 41.343 21.1052 40.1916 21.7723V32.9014C40.1913 35.5639 38.0322 37.7213 35.3696 37.7213H29.7017L33.2919 43.1761L32.7877 43.5073H28.8917L26.698 40.1766L24.4937 43.5073H20.5998L20.0935 43.1719L23.7005 37.7213H18.0137C15.3513 37.721 13.192 35.5637 13.1916 32.9014V21.7723C12.0406 21.1051 11.264 19.8635 11.2637 18.4374V17.4713C11.2645 14.8097 13.422 12.6521 16.0836 12.6514H37.2997ZM17.0497 32.9014C17.05 33.4335 17.4816 33.8651 18.0137 33.8654H35.3696C35.902 33.8654 36.3333 33.4337 36.3336 32.9014V22.2933H17.0497V32.9014ZM16.0836 16.5073C15.5522 16.5081 15.1205 16.9399 15.1196 17.4713V18.4374H38.2637V17.4713C38.2628 16.9397 37.8313 16.5078 37.2997 16.5073H16.0836Z" fill="#0981E3"/>
</svg>
