<svg width="54" height="54" viewBox="0 0 54 54" fill="none" xmlns="http://www.w3.org/2000/svg">
<path d="M38.5714 0H15.4286C6.90761 0 0 6.90761 0 15.4286V38.5714C0 47.0924 6.90761 54 15.4286 54H38.5714C47.0924 54 54 47.0924 54 38.5714V15.4286C54 6.90761 47.0924 0 38.5714 0Z" fill="#0289F7" fill-opacity="0.09"/>
<path d="M25.4103 9.95151C26.2749 9.69974 27.1931 9.69522 28.0602 9.93832L38.9084 12.98C40.9896 13.5635 42.4284 15.461 42.4284 17.6225V33.036C42.4282 34.7659 41.5008 36.3625 39.9989 37.2208L29.3917 43.2834C27.9097 44.13 26.09 44.13 24.608 43.2834L14.0008 37.2208C12.4989 36.3625 11.5715 34.7659 11.5713 33.036V17.598C11.5717 15.455 12.9868 13.57 15.0442 12.9706L25.4103 9.95151ZM27.0187 13.6504C26.8453 13.6018 26.6605 13.6039 26.4876 13.6542L15.4284 16.8749C15.4284 17.357 15.4289 17.1697 15.4284 17.598V33.036C15.4287 33.3817 15.4284 33.7499 15.4284 33.6444L26.5215 39.9329C26.8179 40.1023 27.1818 40.1023 27.4782 39.9329L38.5713 33.652C38.5713 33.7499 38.571 33.3817 38.5713 33.036V17.6225C38.5712 17.1902 38.5713 17.2516 38.5713 16.89L27.0187 13.6504ZM35.1906 22.4948L27.4764 31.1733H24.6946L20.8149 27.3991L23.542 24.6719L25.9527 27.0826L32.3091 19.9334L35.1906 22.4948Z" fill="#0981E3"/>
</svg>
