<svg width="54" height="54" viewBox="0 0 54 54" fill="none" xmlns="http://www.w3.org/2000/svg">
<path d="M38.5714 0H15.4286C6.90761 0 0 6.90761 0 15.4286V38.5714C0 47.0924 6.90761 54 15.4286 54H38.5714C47.0924 54 54 47.0924 54 38.5714V15.4286C54 6.90761 47.0924 0 38.5714 0Z" fill="#0289F7" fill-opacity="0.1"/>
<path d="M15.1198 38.8801C16.0841 38.8801 15.5516 38.8801 16.0841 38.8801H37.2984C37.831 38.8801 37.2984 38.8801 38.2627 38.8801V26.3444H42.1198V37.9158C42.1198 40.5786 39.9612 42.7373 37.2984 42.7373H16.0841C13.4213 42.7373 11.2627 40.5786 11.2627 37.9158V26.3444H15.1198V38.8801ZM30.5484 36.9516H22.8341V33.0944H30.5484V36.9516ZM37.2984 11.8801C39.9612 11.8801 42.1198 14.0388 42.1198 16.7016V22.5984L40.7469 23.5476C39.0097 24.7576 36.0742 24.7368 34.3585 23.4836C32.6642 22.2521 30.3908 22.2095 28.6537 23.3762L28.2243 23.6776C26.5301 24.8226 24.3437 24.8226 22.6496 23.6776L22.2201 23.3762C20.4832 22.2096 19.3525 22.3165 17.6586 23.5476C15.9429 24.8008 14.3728 24.7576 12.6357 23.5476L11.2627 22.5984V16.7016C11.2627 14.0388 13.4213 11.8801 16.0841 11.8801H37.2984ZM15.1198 15.7373C15.1198 15.7373 15.1198 16.169 15.1198 16.7016V19.5944H38.2627V16.7016C38.2627 16.169 38.2627 15.7373 38.2627 15.7373H15.1198Z" fill="#0981E3"/>
</svg>
