<svg width="54" height="54" viewBox="0 0 54 54" fill="none" xmlns="http://www.w3.org/2000/svg">
<path d="M38.5714 0H15.4286C6.90761 0 0 6.90761 0 15.4286V38.5714C0 47.0924 6.90761 54 15.4286 54H38.5714C47.0924 54 54 47.0924 54 38.5714V15.4286C54 6.90761 47.0924 0 38.5714 0Z" fill="#0289F7" fill-opacity="0.09"/>
<path d="M38.2625 24.3H15.1197V37.8C15.1197 37.8 15.5514 37.8 16.084 37.8H37.2983C37.8308 37.8 37.7997 37.8 38.2625 37.8V24.3ZM36.334 32.0143V35.8715H30.5483V32.0143H36.334ZM28.6197 20.4429H37.3416L35.2699 15.2636C35.1234 14.8976 34.7696 14.6572 34.3753 14.6572H28.6197V20.4429ZM19.007 14.6572C18.6127 14.6572 18.2588 14.8976 18.1124 15.2636L16.0407 20.4429H24.7625V14.6572H19.007ZM42.1197 36.8358C42.1197 39.4986 39.9611 41.6572 37.2983 41.6572H16.084C13.4212 41.6572 11.2625 39.4986 11.2625 36.8358V22.3715C11.2625 22.1264 11.3091 21.8834 11.4 21.6558L14.5302 13.8304C15.2625 12.0001 17.0356 10.8 19.007 10.8H34.3753C36.3466 10.8 38.1197 12.0001 38.852 13.8304L41.9822 21.6558C42.0732 21.8834 42.1197 22.1264 42.1197 22.3715V36.8358Z" fill="#0981E3"/>
</svg>
