<svg width="28" height="28" viewBox="0 0 28 28" fill="none" xmlns="http://www.w3.org/2000/svg">
<path d="M20 0H8C3.58172 0 0 3.58172 0 8V20C0 24.4183 3.58172 28 8 28H20C24.4183 28 28 24.4183 28 20V8C28 3.58172 24.4183 0 20 0Z" fill="#0289F7" fill-opacity="0.1"/>
<path d="M8 18L7 18L8 17V18ZM20.9406 13.0895L21.9321 12.9594C22.1642 14.729 21.798 16.5253 20.8917 18.0627L20.0302 17.5548L19.1688 17.047C19.8485 15.8939 20.1232 14.5467 19.9491 13.2196L20.9406 13.0895ZM20.0302 17.5548L20.8917 18.0627C19.9854 19.6001 18.591 20.7903 16.9304 21.444L16.5641 20.5135L16.1978 19.583C17.4433 19.0927 18.489 18.2001 19.1688 17.047L20.0302 17.5548ZM16.5641 20.5135L16.9304 21.444C15.2698 22.0977 13.4382 22.1774 11.7271 21.6703L12.0112 20.7115L12.2953 19.7527C13.5787 20.133 14.9523 20.0733 16.1978 19.583L16.5641 20.5135ZM12.0112 20.7115L11.7271 21.6703C10.0676 21.1786 8.2504 20.0731 7.18589 18.5807L8 18L8.81411 17.4193C9.56326 18.4695 10.9604 19.3572 12.2953 19.7527L12.0112 20.7115ZM8 18L9 18L8.99998 22L7.99998 22L6.99998 22L7 18L8 18ZM8 18V17H12V18V19H8V18Z" fill="#0981E3"/>
<path d="M19.7427 9.99737L19.7434 10.9974L20.7427 9.99737H19.7427ZM19.7427 9.99737L20.5631 9.42557C19.5427 7.96145 18.0619 6.88059 16.3564 6.35492L16.0619 7.31055L15.7673 8.26619C17.0464 8.66044 18.157 9.47109 18.9224 10.5692L19.7427 9.99737ZM16.0619 7.31055L16.3564 6.35492C14.6509 5.82924 12.8186 5.88893 11.151 6.5245L11.5071 7.45894L11.8632 8.39338C13.114 7.9167 14.4882 7.87193 15.7673 8.26619L16.0619 7.31055ZM11.5071 7.45894L11.151 6.5245C9.48333 7.16007 8.07608 8.33501 7.15307 9.86245L8.00893 10.3796L8.8648 10.8968C9.55706 9.75126 10.6125 8.87005 11.8632 8.39338L11.5071 7.45894ZM8.00893 10.3796L7.15307 9.86245C6.23005 11.3899 5.84427 13.1821 6.0571 14.954L7.04996 14.8348L8.04283 14.7155C7.88321 13.3866 8.17254 12.0424 8.8648 10.8968L8.00893 10.3796ZM19.7427 9.99737L19.742 8.99737L15.9993 9L16 10L16.0007 11L19.7434 10.9974L19.7427 9.99737ZM19.7427 9.99737H20.7427V6H19.7427H18.7427V9.99737H19.7427Z" fill="#0981E3"/>
</svg>
