<svg width="54" height="54" viewBox="0 0 54 54" fill="none" xmlns="http://www.w3.org/2000/svg">
<path d="M38.5714 0H15.4286C6.90761 0 0 6.90761 0 15.4286V38.5714C0 47.0924 6.90761 54 15.4286 54H38.5714C47.0924 54 54 47.0924 54 38.5714V15.4286C54 6.90761 47.0924 0 38.5714 0Z" fill="#0289F7" fill-opacity="0.09"/>
<path d="M38.808 35.6781V34.7563H33.6063C30.972 34.7167 28.8559 32.5688 28.8559 29.9343V26.034C28.8564 23.3716 31.0155 21.2141 33.678 21.2141H38.5V17.6957C38.4999 17.319 38.2791 16.9775 37.9368 16.8203L35.781 15.8289C30.1614 13.2484 23.6946 13.2484 18.0749 15.8289L15.9191 16.8203C15.5768 16.9775 15.3561 17.319 15.3559 17.6957V21.2141H20.178C22.8405 21.2141 24.9995 23.3716 25 26.034V29.9343C25 32.5688 22.8839 34.7167 20.2497 34.7563L16.3938 34.8132C13.703 34.8537 11.5001 32.6844 11.5 29.9933V17.6957C11.5001 15.8118 12.5977 14.1006 14.3097 13.3145L16.4655 12.3231C23.1069 9.27348 30.7491 9.27348 37.3905 12.3231L39.5463 13.3145C41.2583 14.1006 42.3558 15.8118 42.3559 17.6957V35.6781C42.3558 38.3405 40.1983 40.4996 37.536 40.5001H25V36.6421H38.808C38.808 36.9507 38.8078 36.2102 38.808 35.6781ZM21.142 29.9343V26.034C21.1415 25.5019 21.142 25.6023 21.142 25.1045L15.3559 25.07V29.9933C15.356 30.5313 15.3559 30.4032 15.3559 30.9004H21.142C21.142 30.4707 21.142 30.4611 21.142 29.9343ZM32.714 30.9004C33.2933 30.9004 33.1365 30.8923 33.6632 30.9004L38.5 30.9721V25.07L33.408 25.0707C32.8757 25.0707 33.408 25.0707 32.714 25.0707V30.9004Z" fill="#0981E3"/>
</svg>
