<!-- Icons for POS Icon Buttons. Taken from frappe/public/icons/lucide.svg -->

<svg id="frappe-symbols" aria-hidden="true" style="display: none;" class="icon" xmlns="http://www.w3.org/2000/svg">
    <symbol xmlns="http://www.w3.org/2000/svg" viewBox="0 0 24 24" id="icon-fullscreen">
		<path d="M3 7V5a2 2 0 0 1 2-2h2" />  <path d="M17 3h2a2 2 0 0 1 2 2v2" />  <path d="M21 17v2a2 2 0 0 1-2 2h-2" />  <path d="M7 21H5a2 2 0 0 1-2-2v-2" />  <rect width="10" height="8" x="7" y="8" rx="1" />
	</symbol>

	<symbol xmlns="http://www.w3.org/2000/svg" viewBox="0 0 24 24" id="icon-maximize">
		<path d="M8 3H5a2 2 0 0 0-2 2v3" />  <path d="M21 8V5a2 2 0 0 0-2-2h-3" />  <path d="M3 16v3a2 2 0 0 0 2 2h3" />  <path d="M16 21h3a2 2 0 0 0 2-2v-3" />
	</symbol>

	<symbol xmlns="http://www.w3.org/2000/svg" viewBox="0 0 24 24" id="icon-minimize">
		<path d="M8 3v3a2 2 0 0 1-2 2H3" />  <path d="M21 8h-3a2 2 0 0 1-2-2V3" />  <path d="M3 16h3a2 2 0 0 1 2 2v3" />  <path d="M16 21v-3a2 2 0 0 1 2-2h3" />
	</symbol>
</svg>
