<svg width="54" height="54" viewBox="0 0 54 54" fill="none" xmlns="http://www.w3.org/2000/svg">
<path d="M38.5714 0H15.4286C6.90761 0 0 6.90761 0 15.4286V38.5714C0 47.0924 6.90761 54 15.4286 54H38.5714C47.0924 54 54 47.0924 54 38.5714V15.4286C54 6.90761 47.0924 0 38.5714 0Z" fill="#0289F7"/>
<path d="M19.2857 15.4286H22.1786C23.7763 15.4286 25.0714 16.7237 25.0714 18.3214V24.1071C25.0714 25.7048 23.7763 27 22.1786 27H19.2857V38.5714H15.4286V27H11.5714V23.1428H21.2143V19.2857H11.5714V15.4286H15.4286V11.5714H19.2857V15.4286ZM38.5714 38.5714H34.7143V34.7143H31.8214C30.2238 34.7143 28.9286 33.4191 28.9286 31.8214V26.0357C28.9286 24.438 30.2238 23.1428 31.8214 23.1428H34.7143V11.5714H38.5714V23.1428H42.4286V27H32.7857V30.8571H42.4286V34.7143H38.5714V38.5714Z" fill="white"/>
</svg>
