<svg width="54" height="54" viewBox="0 0 54 54" fill="none" xmlns="http://www.w3.org/2000/svg">
<path d="M38.5714 0H15.4286C6.90761 0 0 6.90761 0 15.4286V38.5714C0 47.0924 6.90761 54 15.4286 54H38.5714C47.0924 54 54 47.0924 54 38.5714V15.4286C54 6.90761 47.0924 0 38.5714 0Z" fill="#0289F7"/>
<path d="M21.3942 27.1988C21.8981 27.2756 22.3315 27.6132 22.5248 28.0965L24.853 33.9147C25.032 34.3626 24.9771 34.8703 24.7067 35.2698C24.4361 35.6694 23.9847 35.909 23.5021 35.909H11.8658C11.3832 35.9089 10.9318 35.6694 10.6613 35.2698C10.3909 34.8703 10.336 34.3626 10.515 33.9147L12.8431 28.0965L12.9397 27.8977C13.1981 27.4589 13.6725 27.182 14.1925 27.1818H21.1754L21.3942 27.1988ZM38.8486 27.1988C39.3526 27.2756 39.786 27.6132 39.9793 28.0965L42.3074 33.9147C42.4864 34.3626 42.4315 34.8703 42.1611 35.2698C41.8905 35.6694 41.4392 35.909 40.9566 35.909H29.3203C28.8377 35.9089 28.3863 35.6694 28.1157 35.2698C27.8453 34.8703 27.7904 34.3626 27.9694 33.9147L30.2975 28.0965L30.3941 27.8977C30.6526 27.4589 31.127 27.182 31.647 27.1818H38.6299L38.8486 27.1988ZM14.0135 32.9999H21.3544L20.1911 30.0908H15.1769L14.0135 32.9999ZM31.468 32.9999H38.8088L37.6455 30.0908H32.6313L31.468 32.9999ZM30.1214 17.017C30.6254 17.0938 31.0587 17.4315 31.2521 17.9148L33.5802 23.7329C33.7592 24.1809 33.7043 24.6885 33.4339 25.088C33.1633 25.4877 32.712 25.7272 32.2293 25.7272H20.593C20.1104 25.7272 19.6591 25.4877 19.3885 25.088C19.1181 24.6885 19.0632 24.1808 19.2422 23.7329L21.5703 17.9148L21.6669 17.7159C21.9253 17.2771 22.3998 17.0002 22.9197 17H29.9026L30.1214 17.017ZM22.7408 22.8181H30.0816L28.9183 19.9091H23.9041L22.7408 22.8181Z" fill="white"/>
</svg>
