<svg width="54" height="54" viewBox="0 0 54 54" fill="none" xmlns="http://www.w3.org/2000/svg">
<path d="M38.5714 0H15.4286C6.90761 0 0 6.90761 0 15.4286V38.5714C0 47.0924 6.90761 54 15.4286 54H38.5714C47.0924 54 54 47.0924 54 38.5714V15.4286C54 6.90761 47.0924 0 38.5714 0Z" fill="#0289F7"/>
<path d="M26.0489 11.237C26.6795 10.9232 27.4418 10.9763 28.0283 11.3952L41.5283 21.0381C42.2105 21.5254 42.4998 22.3981 42.244 23.1964C41.9878 23.9943 41.2457 24.5355 40.4077 24.5355H38.4791V36.107L41.3718 36.1071C42.4369 36.1071 42.3362 36.9704 42.3362 38.0355C42.3362 39.1006 42.4368 39.9642 41.3718 39.9642L12.4432 39.9641C11.3781 39.9641 11.4792 39.1006 11.4791 38.0355C11.4791 36.9704 11.3781 36.107 12.4432 36.107H15.3363V24.5355H13.4077C12.5697 24.5355 11.8276 23.9943 11.5714 23.1964C11.3156 22.3981 11.6049 21.5254 12.2871 21.0381L25.7871 11.3952L26.0489 11.237ZM19.1934 36.107H24.9791V24.5355H19.1934V36.107ZM28.8363 36.107H34.622V24.5355H28.8363V36.107ZM19.4251 20.6784H34.3903L26.9077 15.3334L19.4251 20.6784Z" fill="white"/>
</svg>
