<svg width="54" height="54" viewBox="0 0 54 54" fill="none" xmlns="http://www.w3.org/2000/svg">
<path d="M38.5714 0H15.4286C6.90761 0 0 6.90761 0 15.4286V38.5714C0 47.0924 6.90761 54 15.4286 54H38.5714C47.0924 54 54 47.0924 54 38.5714V15.4286C54 6.90761 47.0924 0 38.5714 0Z" fill="#0289F7"/>
<path d="M36.5357 10.6429C39.1985 10.6429 41.3571 12.8015 41.3571 15.4643V41.5H18.2143V22.2143H10.5V15.4643C10.5 12.8015 12.6586 10.6429 15.3214 10.6429H36.5357ZM21.9754 14.5C22.0386 14.8115 22.0714 15.1341 22.0714 15.4643V37.6429H37.5V14.5C36.5357 14.5 37.0683 14.5 36.5357 14.5H21.9754ZM35.5714 35.7143H29.7857V31.8571H35.5714V35.7143ZM35.5714 29.9286H25.9286V26.0714H35.5714V29.9286ZM15.3214 14.5C14.7889 14.5 14.3571 14.9317 14.3571 15.4643V18.3571H18.2143V15.4643C18.2143 14.9317 17.7826 14.5 17.25 14.5H15.3214Z" fill="white"/>
</svg>
