<svg width="54" height="54" viewBox="0 0 54 54" fill="none" xmlns="http://www.w3.org/2000/svg">
<path d="M38.5714 0H15.4286C6.90761 0 0 6.90761 0 15.4286V38.5714C0 47.0924 6.90761 54 15.4286 54H38.5714C47.0924 54 54 47.0924 54 38.5714V15.4286C54 6.90761 47.0924 0 38.5714 0Z" fill="#0289F7"/>
<path d="M24.7712 13.8613C26.0005 13.8615 27.1706 14.3903 27.9825 15.3132L40.0005 28.9803C41.5791 30.7757 41.3797 33.5158 39.5578 35.0637L32.5688 41C30.8651 42.4472 28.3344 42.3391 26.7612 40.7511L14.3037 28.175C13.5108 27.3742 13.0658 26.2929 13.0657 25.1659V18.1386C13.0657 15.7763 14.9807 13.8613 17.3429 13.8613H24.7712ZM22.2133 19.3599V22.7817H18.4941V19.3599H22.2133ZM16.4875 25.1659C16.4876 25.3911 16.5763 25.6073 16.7347 25.7674L30.1746 38.6692L37.8736 31.8257C37.8736 31.8257 37.3339 31.3292 37.0182 30.9702L25.4128 17.5738C25.2505 17.3893 25.017 17.2833 24.7712 17.2831H17.3429C16.8705 17.2831 16.4875 17.6661 16.4875 18.1386V25.1659Z" fill="white"/>
</svg>
