<svg width="54" height="54" viewBox="0 0 54 54" fill="none" xmlns="http://www.w3.org/2000/svg">
<path d="M38.5714 0H15.4286C6.90761 0 0 6.90761 0 15.4286V38.5714C0 47.0924 6.90761 54 15.4286 54H38.5714C47.0924 54 54 47.0924 54 38.5714V15.4286C54 6.90761 47.0924 0 38.5714 0Z" fill="#0289F7"/>
<path d="M32.5522 11.5714C33.8307 11.5716 35.057 12.0799 35.9611 12.9839L40.0518 17.0746C40.9558 17.9787 41.4641 19.205 41.4643 20.4835V35.6786C41.4643 38.3413 39.3056 40.4999 36.6429 40.5H17.941C14.0902 40.4999 11.7934 36.2082 13.9294 33.0042L16.7677 28.7478C18.4246 26.2629 22.4502 26.4437 24.1071 28.9286L28.2393 22.1503L31.5465 24.1354L27.597 30.7196C26.0159 33.3546 21.9546 33.4143 20.25 30.8574C20.5231 30.8574 19.9769 30.8574 20.25 30.8574L17.1387 35.1437C16.7115 35.7845 17.1709 36.6428 17.941 36.6428H37.6071C37.6071 36.6428 37.6071 36.2111 37.6071 35.6786V20.4835C37.607 20.228 37.5053 19.9824 37.3246 19.8017L33.234 15.7111C33.0533 15.5304 32.8077 15.4287 32.5522 15.4286H16.3929C16.3929 15.4286 16.393 15.8604 16.3929 16.3928V23.1428H12.5357V16.3928C12.5358 13.7301 14.6944 11.5714 17.3571 11.5714H32.5522Z" fill="white"/>
</svg>
