<svg width="54" height="54" viewBox="0 0 54 54" fill="none" xmlns="http://www.w3.org/2000/svg">
<path d="M38.5714 0H15.4286C6.90761 0 0 6.90761 0 15.4286V38.5714C0 47.0924 6.90761 54 15.4286 54H38.5714C47.0924 54 54 47.0924 54 38.5714V15.4286C54 6.90761 47.0924 0 38.5714 0Z" fill="#0289F7"/>
<path d="M34.6209 11.5228C35.9515 11.5229 37.21 12.0858 38.0412 13.0518L40.9712 16.4569C41.5924 17.1789 41.9316 18.0762 41.9317 19.0008V36.2889C41.9317 40.1042 36.7946 41.8256 34.1769 38.8872L32.7866 37.3263L30.1714 39.465C28.6326 40.7243 26.3336 40.7459 24.7695 39.5138L21.9828 37.3169L20.5602 38.966C18.051 41.8744 13.0031 40.2255 13.0031 36.4971H17.1358L18.7582 34.9137C20.2135 33.2268 22.8799 32.9886 24.6545 34.3865L27.4412 36.5815L30.0564 34.4428C31.8061 33.0108 34.4819 33.207 35.9688 34.8762L37.799 36.5065V19.0008C37.7989 18.9489 37.7794 18.8989 37.7446 18.8582L34.8146 15.4513C34.7676 15.3967 34.696 15.3651 34.6209 15.365H17.1358V15.5957V30.7338H13.0031V15.5957C13.0031 13.3464 14.9646 11.5228 17.384 11.5228H34.6209Z" fill="white"/>
</svg>
