<svg width="54" height="54" viewBox="0 0 54 54" fill="none" xmlns="http://www.w3.org/2000/svg">
<path d="M38.5714 0H15.4286C6.90761 0 0 6.90761 0 15.4286V38.5714C0 47.0924 6.90761 54 15.4286 54H38.5714C47.0924 54 54 47.0924 54 38.5714V15.4286C54 6.90761 47.0924 0 38.5714 0Z" fill="#0289F7"/>
<path d="M37.5006 25.7007L31.3332 29.039L28.7492 27.5V25.3409L22.6507 29.0007L19.9996 27.5V16.999H16.4987V35.3748C16.4987 35.8578 16.4987 35.7188 16.4987 36.2495H37.5006C37.5006 35.3748 37.5006 35.8578 37.5006 35.3748V25.7007ZM23.4987 24.4087L29.599 20.7488C30.1397 20.4244 30.8133 20.4171 31.362 20.7278C31.9103 21.0384 32.25 21.6193 32.2501 22.2495V24.5618L38.4175 21.2255C38.9596 20.9323 39.6164 20.9464 40.1459 21.2618C40.6756 21.5775 40.9996 22.1497 40.9996 22.7663V35.3748C40.9996 37.7908 39.0418 39.75 36.6258 39.7505H17.3734C14.9575 39.75 12.9996 37.7908 12.9996 35.3748V15.5998C12.9996 14.44 13.9396 13.5 15.0994 13.5H21.3989C22.5587 13.5 23.4987 14.44 23.4987 15.5998V24.4087Z" fill="white"/>
</svg>
