<svg width="54" height="54" viewBox="0 0 54 54" fill="none" xmlns="http://www.w3.org/2000/svg">
<path d="M38.5714 0H15.4286C6.90761 0 0 6.90761 0 15.4286V38.5714C0 47.0924 6.90761 54 15.4286 54H38.5714C47.0924 54 54 47.0924 54 38.5714V15.4286C54 6.90761 47.0924 0 38.5714 0Z" fill="#0289F7"/>
<path d="M19.2857 18.3214H15.4286C15.4286 18.3214 15.4286 18.7532 15.4286 19.2857V36.6429C15.4286 37.1754 15.4286 37.6072 15.4286 37.6072H38.5714C38.5714 37.6072 38.5714 37.1754 38.5714 36.6429V19.2857C38.5714 18.7532 38.5714 18.3214 38.5714 18.3214H34.7143V14.4643H37.6072C40.27 14.4643 42.4286 16.6229 42.4286 19.2857V36.6429C42.4286 39.3057 40.27 41.4643 37.6072 41.4643H16.3929C13.7301 41.4643 11.5714 39.3057 11.5714 36.6429V19.2857C11.5714 16.6229 13.7301 14.4643 16.3929 14.4643H19.2857V18.3214ZM36.6429 35.6786H28.9286V31.8214H36.6429V35.6786ZM33.9214 12.9067L32.7857 14.4643L31.6501 16.0237L28.9286 14.0387V24.1072H25.0714V14.0387L22.35 16.0237L21.2143 14.4643L20.0786 12.9067L25.8643 8.68988H28.1357L33.9214 12.9067Z" fill="white"/>
</svg>
