<svg width="54" height="54" viewBox="0 0 54 54" fill="none" xmlns="http://www.w3.org/2000/svg">
<path d="M38.5714 0H15.4286C6.90761 0 0 6.90761 0 15.4286V38.5714C0 47.0924 6.90761 54 15.4286 54H38.5714C47.0924 54 54 47.0924 54 38.5714V15.4286C54 6.90761 47.0924 0 38.5714 0Z" fill="#0289F7"/>
<path d="M16.4999 37C17.3749 37 16.8916 37 17.3749 37H36.6249C37.1081 37 36.6249 37 37.4999 37V25.625H40.9999V36.125C40.9999 38.5412 39.0411 40.5 36.6249 40.5H17.3749C14.9586 40.5 12.9999 38.5412 12.9999 36.125V25.625H16.4999V37ZM30.4999 35.25H23.4999V31.75H30.4999V35.25ZM36.6249 12.5C39.0411 12.5 40.9999 14.4588 40.9999 16.875V22.2258L39.754 23.0872C38.1777 24.1851 35.514 24.1662 33.9572 23.0291C32.4198 21.9116 30.3569 21.8729 28.7806 22.9316L28.391 23.2051C26.8537 24.2441 24.8697 24.2441 23.3324 23.2051L22.9427 22.9316C21.3667 21.873 20.3406 21.97 18.8036 23.0872C17.2468 24.2243 15.822 24.1851 14.2457 23.0872L12.9999 22.2258V16.875C12.9999 14.4588 14.9586 12.5 17.3749 12.5H36.6249ZM16.4999 16C16.4999 16 16.4999 16.3918 16.4999 16.875V19.5H37.4999V16.875C37.4999 16.3918 37.4999 16 37.4999 16H16.4999Z" fill="white"/>
</svg>
