<svg width="54" height="54" viewBox="0 0 54 54" fill="none" xmlns="http://www.w3.org/2000/svg">
<path d="M38.5714 0H15.4286C6.90761 0 0 6.90761 0 15.4286V38.5714C0 47.0924 6.90761 54 15.4286 54H38.5714C47.0924 54 54 47.0924 54 38.5714V15.4286C54 6.90761 47.0924 0 38.5714 0Z" fill="#0289F7"/>
<path d="M36.749 25.25H15.749V37.5C15.749 37.5 16.1408 37.5 16.624 37.5H35.874C36.3573 37.5 36.329 37.5 36.749 37.5V25.25ZM34.999 32.25V35.75H29.749V32.25H34.999ZM27.999 21.75H35.9133L34.0334 17.0503C33.9006 16.7181 33.5795 16.5 33.2217 16.5H27.999V21.75ZM19.2764 16.5C18.9186 16.5 18.5975 16.7181 18.4646 17.0503L16.5847 21.75H24.499V16.5H19.2764ZM40.249 36.625C40.249 39.0412 38.2903 41 35.874 41H16.624C14.2078 41 12.249 39.0412 12.249 36.625V23.5C12.249 23.2776 12.2913 23.0571 12.3738 22.8506L15.2141 15.7498C15.8786 14.0889 17.4875 13 19.2764 13H33.2217C35.0105 13 36.6194 14.0889 37.2839 15.7498L40.1243 22.8506C40.2068 23.0571 40.249 23.2776 40.249 23.5V36.625Z" fill="white"/>
</svg>
