<svg width="54" height="54" viewBox="0 0 54 54" fill="none" xmlns="http://www.w3.org/2000/svg">
<path d="M38.5714 0H15.4286C6.90761 0 0 6.90761 0 15.4286V38.5714C0 47.0924 6.90761 54 15.4286 54H38.5714C47.0924 54 54 47.0924 54 38.5714V15.4286C54 6.90761 47.0924 0 38.5714 0Z" fill="#0289F7"/>
<path d="M40.5008 21.2145C41.566 21.2145 42.4294 22.0779 42.4294 23.1431V38.5716C42.4294 39.6368 41.566 40.5002 40.5008 40.5002H13.5008C12.4357 40.5002 11.5723 39.6368 11.5723 38.5716V23.1431C11.5723 22.0779 12.4357 21.2145 13.5008 21.2145H40.5008ZM15.4294 36.6431H38.5723V25.0716H15.4294V36.6431ZM27.0008 27.0002C29.1311 27.0002 30.858 28.7271 30.858 30.8574C30.858 32.9876 29.1311 34.7145 27.0008 34.7145C24.8706 34.7145 23.1437 32.9876 23.1437 30.8574C23.1437 28.7271 24.8706 27.0002 27.0008 27.0002ZM38.5723 19.2859H15.4294V15.4288H38.5723V19.2859ZM34.7151 13.5002H19.2866V9.64307H34.7151V13.5002Z" fill="white"/>
</svg>
