<svg width="54" height="54" viewBox="0 0 54 54" fill="none" xmlns="http://www.w3.org/2000/svg">
<path d="M38.5714 0H15.4286C6.90761 0 0 6.90761 0 15.4286V38.5714C0 47.0924 6.90761 54 15.4286 54H38.5714C47.0924 54 54 47.0924 54 38.5714V15.4286C54 6.90761 47.0924 0 38.5714 0Z" fill="#0289F7"/>
<path d="M37.2807 35.6938V34.8573H32.5604C30.17 34.8214 28.2498 32.8723 28.2498 30.4816V26.9424C28.2502 24.5264 30.2094 22.5686 32.6255 22.5686H37.0012V19.3758C37.0011 19.034 36.8008 18.7241 36.4901 18.5814L34.5339 17.6818C29.4344 15.3402 23.5661 15.3402 18.4666 17.6818L16.5104 18.5814C16.1997 18.7241 15.9994 19.034 15.9993 19.3758V22.5686H20.375C22.7911 22.5686 24.7503 24.5264 24.7507 26.9424V30.4816C24.7507 32.8723 22.8305 34.8214 20.4401 34.8573L16.941 34.909C14.4993 34.9457 12.5003 32.9772 12.5002 30.5352V19.3758C12.5003 17.6663 13.4963 16.1135 15.0499 15.4001L17.0061 14.5005C23.0328 11.7331 29.9677 11.7331 35.9944 14.5005L37.9506 15.4001C39.5042 16.1135 40.5001 17.6663 40.5002 19.3758V35.6938C40.5001 38.1098 38.5423 40.0691 36.1264 40.0695H24.7507V36.5686H37.2807C37.2807 36.8487 37.2805 36.1767 37.2807 35.6938ZM21.2498 30.4816V26.9424C21.2493 26.4595 21.2498 26.5506 21.2498 26.0989L15.9993 26.0676V30.5352C15.9993 31.0234 15.9993 30.9072 15.9993 31.3583H21.2498C21.2498 30.9684 21.2498 30.9597 21.2498 30.4816ZM31.7507 31.3583C32.2764 31.3583 32.1341 31.351 32.6121 31.3583L37.0012 31.4234V26.0676L32.3805 26.0682C31.8975 26.0682 32.3805 26.0682 31.7507 26.0682V31.3583Z" fill="white"/>
</svg>
