<svg width="61" height="61" viewBox="0 0 61 61" fill="none" xmlns="http://www.w3.org/2000/svg">
<path d="M42.9279 0H17.1712C7.6878 0 0 7.6878 0 17.1712V42.9279C0 52.4113 7.6878 60.0991 17.1712 60.0991H42.9279C52.4113 60.0991 60.0991 52.4113 60.0991 42.9279V17.1712C60.0991 7.6878 52.4113 0 42.9279 0Z" fill="#06B58B"/>
<path d="M18.2228 47.2172L15.3252 44.0405C19.3819 40.3702 24.5976 38.3311 30.028 38.3311C35.4584 38.3311 40.6956 40.3487 44.7309 44.0405L41.8332 47.2172C38.5706 44.2551 34.3852 42.6238 30.028 42.6238C25.6708 42.6238 21.464 44.2551 18.2014 47.2172H18.2228Z" fill="white"/>
<path d="M32.0243 12.8762H19.4463V17.169H32.0243C34.3853 17.169 36.3171 19.1008 36.3171 21.4618V25.4541C36.3171 27.8151 34.3853 29.7469 32.0243 29.7469H28.0319C25.6708 29.7469 23.7391 27.8151 23.7391 25.4541V22.7496H19.4463V25.4541C19.4463 30.1976 23.2883 34.0397 28.0319 34.0397H32.0243C36.7678 34.0397 40.6099 30.1976 40.6099 25.4541V21.4618C40.6099 16.7183 36.7678 12.8762 32.0243 12.8762Z" fill="white"/>
</svg>
