<svg width="54" height="54" viewBox="0 0 54 54" fill="none" xmlns="http://www.w3.org/2000/svg">
<path d="M38.5714 0H15.4286C6.90761 0 0 6.90761 0 15.4286V38.5714C0 47.0924 6.90761 54 15.4286 54H38.5714C47.0924 54 54 47.0924 54 38.5714V15.4286C54 6.90761 47.0924 0 38.5714 0Z" fill="#06B58B" fill-opacity="0.1"/>
<path d="M26.4735 29.3973C29.874 29.3973 32.6858 31.912 33.1538 35.183H41.9021V39.0401H32.5737C31.4904 41.3206 29.1661 42.8973 26.4735 42.8973C23.7809 42.8973 21.4566 41.3206 20.3733 39.0401H11.0449V35.183H19.7932C20.2612 31.912 23.073 29.3973 26.4735 29.3973ZM26.4735 33.2544C24.8758 33.2544 23.5806 34.5496 23.5806 36.1473C23.5806 37.745 24.8758 39.0401 26.4735 39.0401C28.0712 39.0401 29.3664 37.745 29.3664 36.1473C29.3664 34.5496 28.0712 33.2544 26.4735 33.2544ZM26.4735 10.1116C30.734 10.1116 34.1878 13.5654 34.1878 17.8259C34.1878 19.1412 33.6183 20.4236 33.022 21.4476C32.398 22.519 31.5928 23.5609 30.8297 24.4497C30.0604 25.3458 29.2963 26.1296 28.7279 26.6871C28.4426 26.9669 28.2042 27.1928 28.0348 27.3501C27.95 27.4288 27.8808 27.4897 27.8333 27.5327C27.8098 27.5541 27.792 27.5717 27.7787 27.5836C27.772 27.5896 27.7657 27.5932 27.7617 27.5968C27.7598 27.5985 27.758 27.6024 27.758 27.6024L27.7561 27.6043H25.1909L25.189 27.6024C25.189 27.6024 25.1872 27.5985 25.1853 27.5968C25.1813 27.5932 25.175 27.5896 25.1683 27.5836C25.155 27.5717 25.1372 27.5541 25.1137 27.5327C25.0662 27.4897 24.997 27.4288 24.9122 27.3501C24.7428 27.1928 24.5044 26.9669 24.2191 26.6871C23.6506 26.1296 22.8866 25.3458 22.1173 24.4497C21.3542 23.5609 20.549 22.519 19.925 21.4476C19.3287 20.4236 18.7592 19.1412 18.7592 17.8259C18.7592 13.5654 22.213 10.1116 26.4735 10.1116ZM26.4735 13.9687C24.3433 13.9687 22.6164 15.6956 22.6164 17.8259C22.6164 18.1082 22.7701 18.6671 23.2586 19.5058C23.7194 20.2971 24.3607 21.1413 25.044 21.9373C25.5382 22.5128 26.0403 23.0372 26.4735 23.4779C26.9067 23.0372 27.4088 22.5128 27.903 21.9373C28.5863 21.1413 29.2276 20.2971 29.6884 19.5058C30.1769 18.6671 30.3306 18.1082 30.3306 17.8259C30.3306 15.6956 28.6037 13.9687 26.4735 13.9687Z" fill="#048F6E"/>
</svg>
