<svg width="54" height="54" viewBox="0 0 54 54" fill="none" xmlns="http://www.w3.org/2000/svg">
<path d="M38.5714 0H15.4286C6.90761 0 0 6.90761 0 15.4286V38.5714C0 47.0924 6.90761 54 15.4286 54H38.5714C47.0924 54 54 47.0924 54 38.5714V15.4286C54 6.90761 47.0924 0 38.5714 0Z" fill="#06B58B" fill-opacity="0.1"/>
<path d="M35.6786 10.6074C38.3414 10.6074 40.5 12.766 40.5 15.4289V39.8562L39.2984 40.6886C37.7783 41.7468 35.2096 41.7285 33.7086 40.6321C32.2261 39.5545 30.2376 39.517 28.7176 40.5379L28.3428 40.8016C26.8604 41.8036 24.9455 41.8036 23.463 40.8016L23.0882 40.5379C21.5683 39.517 20.5779 39.611 19.0955 40.6886C17.5947 41.7846 16.2211 41.7468 14.7016 40.6886L13.5 39.8562V15.4289C13.5 12.766 15.6586 10.6074 18.3214 10.6074H35.6786ZM18.3214 14.4646C17.7889 14.4646 18.3214 14.4646 17.3571 14.4646V37.2289H36.6429V14.4646C36.6429 14.4646 36.2111 14.4646 35.6786 14.4646H18.3214ZM34.7143 33.7503H27V29.8931H34.7143V33.7503Z" fill="#1F876C"/>
</svg>
