<svg width="54" height="54" viewBox="0 0 54 54" fill="none" xmlns="http://www.w3.org/2000/svg">
<path d="M38.5714 0H15.4286C6.90761 0 0 6.90761 0 15.4286V38.5714C0 47.0924 6.90761 54 15.4286 54H38.5714C47.0924 54 54 47.0924 54 38.5714V15.4286C54 6.90761 47.0924 0 38.5714 0Z" fill="#06B58B" fill-opacity="0.1"/>
<path d="M41.9468 26.6921V29.622L35.1968 35.408L32.6867 32.4781L35.4774 30.0861H26.2278V26.228H35.4774L32.6867 23.836L35.1968 20.9082L41.9468 26.6921ZM37.7998 17.55C37.7998 17.0178 37.368 16.5866 36.8358 16.5861H15.6197C15.0876 16.5866 14.6557 17.0178 14.6557 17.55V36.8361C14.6559 37.3682 15.0877 37.7996 15.6197 37.8H36.8358C37.3679 37.7996 37.7996 37.3682 37.7998 36.8361V35.8721H41.6557V36.8361C41.6556 39.4984 39.4981 41.6576 36.8358 41.6581H15.6197C12.9574 41.6576 10.8 39.4984 10.7998 36.8361V17.55C10.7998 14.8875 12.9573 12.7285 15.6197 12.728H16.5858V10.8H20.4418V12.728H32.0138V10.8H35.8697V12.728H36.8358C39.4982 12.7285 41.6557 14.8875 41.6557 17.55V20.442H37.7998V17.55Z" fill="#1F876C"/>
</svg>
