<svg width="54" height="54" viewBox="0 0 54 54" fill="none" xmlns="http://www.w3.org/2000/svg">
<path d="M38.5714 0H15.4286C6.90761 0 0 6.90761 0 15.4286V38.5714C0 47.0924 6.90761 54 15.4286 54H38.5714C47.0924 54 54 47.0924 54 38.5714V15.4286C54 6.90761 47.0924 0 38.5714 0Z" fill="#DFF2ED"/>
<path d="M33.6257 10.6052C36.2885 10.6052 38.4471 12.7639 38.4471 15.4267V15.8655H34.59V15.4267C34.59 14.8941 34.59 14.4624 34.59 14.4624H20.1257V37.6052H21.6475V41.4624H14.34C11.6772 41.4624 9.51855 39.3037 9.51855 36.6409V15.4267C9.51855 12.7639 11.6772 10.6052 14.34 10.6052H33.6257ZM34.3357 30.5916C37.7017 30.3847 41.3822 31.2279 45.3384 33.5635L46.2857 34.1229V41.4605L44.3571 41.4624H24.8209V34.1831L25.6911 33.6125C28.096 32.0345 30.9851 30.7978 34.3357 30.5916ZM13.3757 14.4624C13.3757 14.4624 13.3757 14.8941 13.3757 15.4267V36.6409C13.3757 37.1735 13.3757 37.6052 13.3757 37.6052H16.2686V14.4624H13.3757ZM42.4286 36.3566C39.4472 34.7842 36.8371 34.3018 34.5711 34.4412C32.412 34.5742 30.4518 35.2785 28.6781 36.3019V37.6052H42.4286V36.3566ZM35.5543 17.3552C39.0502 17.3555 41.8858 20.1894 41.8862 23.6852C41.8862 27.1814 39.0504 30.0169 35.5543 30.0171C32.0582 30.0168 29.2243 27.1813 29.2243 23.6852C29.2246 20.1894 32.0585 17.3556 35.5543 17.3552ZM35.5543 21.2124C34.1887 21.2127 33.0818 22.3197 33.0814 23.6852C33.0814 25.0511 34.1885 26.1596 35.5543 26.16C36.9201 26.1597 38.029 25.0512 38.029 23.6852C38.0287 22.3196 36.9199 21.2126 35.5543 21.2124Z" fill="#1F876C"/>
</svg>
