<svg width="54" height="54" viewBox="0 0 54 54" fill="none" xmlns="http://www.w3.org/2000/svg">
<path d="M38.5714 0H15.4286C6.90761 0 0 6.90761 0 15.4286V38.5714C0 47.0924 6.90761 54 15.4286 54H38.5714C47.0924 54 54 47.0924 54 38.5714V15.4286C54 6.90761 47.0924 0 38.5714 0Z" fill="#06B58B" fill-opacity="0.1"/>
<path d="M26.3517 12.2757C29.3176 12.2871 32.2181 13.1525 34.7045 14.7693C37.1908 16.3863 39.1583 18.6868 40.3716 21.3931C41.5847 24.0999 41.9924 27.1 41.5449 30.0322C41.0973 32.9644 39.8133 35.7057 37.8478 37.9272L36.4033 36.6503L34.9606 35.3715C36.4344 33.7054 37.3973 31.6491 37.733 29.4502C38.0685 27.2512 37.7632 25.0013 36.8534 22.9714C35.9436 20.9415 34.4674 19.2159 32.6026 18.0031C30.7377 16.7903 28.5612 16.1413 26.3367 16.1329C24.1122 16.1246 21.9315 16.7574 20.0575 17.956C18.1835 19.1547 16.6942 20.8692 15.7691 22.8923C14.8441 24.9153 14.5235 27.1622 14.8424 29.3636C15.1616 31.5651 16.1082 33.6284 17.5696 35.3056L14.6616 37.8406C12.7129 35.6043 11.4504 32.8529 11.0248 29.9173C10.5994 26.9817 11.0287 23.9852 12.2622 21.2877C13.4958 18.5904 15.4815 16.3054 17.9801 14.7072C20.4788 13.1091 23.3857 12.2646 26.3517 12.2757ZM32.8192 22.5363C32.6712 22.7391 32.5228 22.942 32.3748 23.1447C29.7042 26.8012 27.0334 30.4588 24.3629 34.1153C24.2146 34.3183 24.0667 34.5225 23.9184 34.7255C22.9308 33.9025 21.9416 33.0776 20.954 32.2545C21.1268 32.0722 21.301 31.8907 21.4738 31.7084C24.5888 28.4222 27.7041 25.135 30.8191 21.8489C30.9921 21.6665 31.1659 21.4833 31.3389 21.3009C31.8326 21.7123 32.3256 22.125 32.8192 22.5363Z" fill="#1F876C"/>
</svg>
