<svg width="54" height="54" viewBox="0 0 54 54" fill="none" xmlns="http://www.w3.org/2000/svg">
<path d="M38.5714 0H15.4286C6.90761 0 0 6.90761 0 15.4286V38.5714C0 47.0924 6.90761 54 15.4286 54H38.5714C47.0924 54 54 47.0924 54 38.5714V15.4286C54 6.90761 47.0924 0 38.5714 0Z" fill="#06B58B" fill-opacity="0.1"/>
<path d="M39.868 37.5814H43.7251V41.4386H39.868V45.2957H36.0108V41.4386H32.1537V37.5814H36.0108V33.7243H39.868V37.5814ZM24.8066 10.6116C29.067 10.6116 32.5208 14.0655 32.5209 18.3259C32.5209 22.5863 29.0671 26.0401 24.8066 26.0401C20.5464 26.0399 17.0924 22.5862 17.0924 18.3259C17.0925 14.0656 20.5465 10.6118 24.8066 10.6116ZM24.8066 14.4687C22.6767 14.469 20.9496 16.1959 20.9495 18.3259C20.9495 20.4559 22.6766 22.1827 24.8066 22.183C26.9369 22.183 28.6638 20.4561 28.6638 18.3259C28.6636 16.1957 26.9368 14.4687 24.8066 14.4687Z" fill="#1F876C"/>
<path d="M24.0307 26.9103C27.7837 26.8466 31.9855 27.9361 35.4458 31.3964L32.7187 34.1236C30.1524 31.5573 27.045 30.7174 24.0966 30.7674C21.1015 30.8183 18.2555 31.8526 16.7251 32.76V37.5814C17.6894 37.5814 17.157 37.5814 17.6894 37.5814H30.2251V41.4386H17.6894C15.0268 41.4386 12.8683 39.2797 12.868 36.6172V33.1084C12.8681 31.7765 13.4363 30.2402 14.8813 29.3831C16.9527 28.1546 20.3255 26.9733 24.0307 26.9103Z" fill="#1F876C"/>
</svg>
