<svg width="54" height="54" viewBox="0 0 54 54" fill="none" xmlns="http://www.w3.org/2000/svg">
<path d="M38.5714 0H15.4286C6.90761 0 0 6.90761 0 15.4286V38.5714C0 47.0924 6.90761 54 15.4286 54H38.5714C47.0924 54 54 47.0924 54 38.5714V15.4286C54 6.90761 47.0924 0 38.5714 0Z" fill="#06B58B" fill-opacity="0.1"/>
<path d="M30.6989 20.826H16.2346C15.702 20.826 15.2703 21.2577 15.2703 21.7902V35.2902C15.2703 35.8228 15.702 36.2545 16.2346 36.2545H37.4489C37.9814 36.2545 38.4132 35.8228 38.4132 35.2902V16.9688C40.5434 16.9688 42.2703 18.6957 42.2703 20.826V35.2902C42.2703 37.953 40.1117 40.1117 37.4489 40.1117H16.2346C13.5718 40.1117 11.4132 37.953 11.4132 35.2902V21.7902C11.4132 19.1274 13.5718 16.9688 16.2346 16.9688H30.6989V20.826ZM26.8417 22.7545C30.0371 22.7545 32.6274 25.3449 32.6274 28.5402C32.6274 31.7356 30.0371 34.326 26.8417 34.326C23.6464 34.326 21.056 31.7356 21.056 28.5402C21.056 25.3449 23.6464 22.7545 26.8417 22.7545ZM26.8417 26.6117C25.7766 26.6117 24.9132 27.4751 24.9132 28.5402C24.9132 29.6054 25.7766 30.4688 26.8417 30.4688C27.9068 30.4688 28.7703 29.6054 28.7703 28.5402C28.7703 27.4751 27.9068 26.6117 26.8417 26.6117ZM41.4115 11.507L39.272 14.7163L36.4846 12.8574V20.826H32.6274V12.8574L29.8401 14.7163L27.7005 11.507L33.4863 7.6499H35.6258L41.4115 11.507Z" fill="#1F876C"/>
</svg>
