<svg width="54" height="54" viewBox="0 0 54 54" fill="none" xmlns="http://www.w3.org/2000/svg">
<path d="M38.5714 0H15.4286C6.90761 0 0 6.90761 0 15.4286V38.5714C0 47.0924 6.90761 54 15.4286 54H38.5714C47.0924 54 54 47.0924 54 38.5714V15.4286C54 6.90761 47.0924 0 38.5714 0Z" fill="#06B58B" fill-opacity="0.1"/>
<path d="M26.7695 20.2614C29.4319 20.2619 31.5908 22.4205 31.591 25.0829V31.8329C31.591 31.8329 32.0227 31.8329 32.5553 31.8329H37.3767C40.039 31.8333 42.1979 33.992 42.1981 36.6543V41.4758H38.341V35.69C37.3756 35.6902 37.9088 35.6905 37.3767 35.69H32.5553C29.8925 35.69 27.7338 33.5314 27.7338 30.8686L27.7328 24.1188C26.7685 24.1188 27.3016 24.119 26.7695 24.1186H25.8053C25.2728 24.1186 25.8042 24.1188 24.841 24.1186V41.4758H20.9838V25.0829C20.984 22.4202 23.1426 20.2614 25.8053 20.2614H26.7695ZM23.0612 11.0705C25.481 10.4715 28.0111 10.4674 30.4327 11.0592C32.8549 11.6515 35.099 12.8234 36.9699 14.4719C38.8406 16.1205 40.2851 18.1986 41.1773 20.527C42.0694 22.8553 42.3827 25.3656 42.0927 27.842L38.2619 27.3938C38.4794 25.5365 38.2435 23.6537 37.5744 21.9075C36.9052 20.1611 35.8229 18.6013 34.4198 17.3648C33.0167 16.1285 31.3339 15.2514 29.5174 14.8072C27.7009 14.3631 25.803 14.3653 23.9878 14.8147C22.1726 15.2643 20.4923 16.1488 19.0929 17.3893C17.6938 18.6299 16.6153 20.1914 15.9515 21.9395C15.2877 23.6877 15.0579 25.5711 15.281 27.4277C15.5042 29.2845 16.1746 31.06 17.234 32.6013L14.0549 34.786C12.6426 32.7311 11.7498 30.3647 11.4521 27.8891C11.1544 25.4132 11.4614 22.9016 12.3467 20.5703C13.2319 18.2394 14.6678 16.1562 16.5334 14.5021C18.3993 12.848 20.6408 11.67 23.0612 11.0705Z" fill="#1F876C"/>
</svg>
