<svg width="54" height="54" viewBox="0 0 54 54" fill="none" xmlns="http://www.w3.org/2000/svg">
<path d="M38.5714 0H15.4286C6.90761 0 0 6.90761 0 15.4286V38.5714C0 47.0924 6.90761 54 15.4286 54H38.5714C47.0924 54 54 47.0924 54 38.5714V15.4286C54 6.90761 47.0924 0 38.5714 0Z" fill="#06B58B" fill-opacity="0.1"/>
<path d="M34.7143 28.9285C37.9096 28.9285 40.5 31.5188 40.5 34.7142C40.5 37.9095 37.9096 40.4999 34.7143 40.4999C31.5189 40.4999 28.9286 37.9095 28.9286 34.7142C28.9286 31.5188 31.5189 28.9285 34.7143 28.9285ZM38.5714 17.357V26.9999H34.7143V22.0127L18.7207 38.0063L15.9936 35.2792L31.9872 19.2856H27V15.4285H36.6429L38.5714 17.357ZM34.7143 32.7856C33.6492 32.7856 32.7857 33.6491 32.7857 34.7142C32.7857 35.7793 33.6492 36.6428 34.7143 36.6428C35.7794 36.6428 36.6429 35.7793 36.6429 34.7142C36.6429 33.6491 35.7794 32.7856 34.7143 32.7856ZM19.2857 15.4285C22.4811 15.4285 25.0714 18.0188 25.0714 21.2142C25.0714 24.4095 22.4811 26.9999 19.2857 26.9999C16.0904 26.9999 13.5 24.4095 13.5 21.2142C13.5 18.0188 16.0904 15.4285 19.2857 15.4285ZM19.2857 19.2856C18.2206 19.2856 17.3571 20.1491 17.3571 21.2142C17.3571 22.2793 18.2206 23.1428 19.2857 23.1428C20.3508 23.1428 21.2143 22.2793 21.2143 21.2142C21.2143 20.1491 20.3508 19.2856 19.2857 19.2856Z" fill="#1F876C"/>
</svg>
