<?xml version="1.0" encoding="utf-8"?><svg xmlns="http://www.w3.org/2000/svg" xmlns:xlink="http://www.w3.org/1999/xlink"><symbol fill="none" viewBox="0 0 26 28" id="A" xmlns="http://www.w3.org/2000/svg"><path d="M0 27.462 9.205 1.288C9.476.516 10.205 0 11.023 0h3.487c.815 0 1.542.513 1.815 1.28l9.331 26.182h-5.382l-4.866-14.32a263.187 263.187 0 0 1-1.493-4.94 778.69 778.69 0 0 1-1.75-6.285h1.142a451.9 451.9 0 0 1-1.732 6.303 165.844 165.844 0 0 1-1.438 4.921L5.345 27.462H0Zm5.658-6.727v-3.981h14.34v3.981H5.658Z" fill="currentColor"/></symbol><symbol fill="none" viewBox="0 0 21 28" id="B" xmlns="http://www.w3.org/2000/svg"><path d="M0 27.462V0h10.542c1.966 0 3.613.307 4.94.922 1.327.614 2.322 1.456 2.986 2.525.676 1.069 1.014 2.297 1.014 3.686 0 1.093-.21 2.04-.627 2.838a5.371 5.371 0 0 1-1.714 1.954 7.312 7.312 0 0 1-2.452 1.106v.202a6.275 6.275 0 0 1 2.857.922c.885.54 1.604 1.296 2.157 2.267.553.959.83 2.12.83 3.484 0 1.45-.351 2.746-1.052 3.889-.688 1.142-1.732 2.04-3.133 2.69-1.4.652-3.158.977-5.271.977H0Zm4.884-4.073h5.511c1.77 0 3.072-.344 3.907-1.032.836-.688 1.254-1.61 1.254-2.765 0-.823-.203-1.554-.609-2.193-.405-.651-.983-1.161-1.732-1.53-.75-.368-1.647-.553-2.691-.553h-5.64v8.073Zm0-11.704h5.16c.886 0 1.666-.16 2.341-.479.689-.32 1.223-.768 1.604-1.345.393-.59.59-1.284.59-2.083 0-1.106-.381-2.003-1.143-2.691-.762-.688-1.868-1.032-3.318-1.032H4.884v7.63Z" fill="currentColor"/></symbol><symbol fill="none" viewBox="0 0 25 29" id="C" xmlns="http://www.w3.org/2000/svg"><path d="M12.662 28.236c-2.433 0-4.608-.565-6.524-1.695-1.905-1.13-3.404-2.747-4.498-4.848C.547 19.58 0 17.061 0 14.137 0 11.2.547 8.675 1.64 6.56c1.094-2.113 2.6-3.735 4.516-4.865C8.073.566 10.242 0 12.662 0c1.524 0 2.943.221 4.258.663a10.7 10.7 0 0 1 3.52 1.899c1.032.823 1.88 1.83 2.544 3.023.675 1.18 1.124 2.525 1.345 4.036h-4.958c-.16-.836-.442-1.573-.848-2.212a5.85 5.85 0 0 0-1.456-1.64 6.166 6.166 0 0 0-1.972-1.032 7.771 7.771 0 0 0-2.36-.35c-1.547 0-2.911.387-4.09 1.16-1.18.775-2.096 1.887-2.747 3.337-.651 1.45-.977 3.2-.977 5.253 0 2.052.326 3.802.977 5.253.663 1.45 1.579 2.555 2.746 3.317 1.18.762 2.544 1.143 4.092 1.143.835 0 1.616-.117 2.34-.35a6.381 6.381 0 0 0 1.973-1.014 5.726 5.726 0 0 0 1.474-1.64 6.478 6.478 0 0 0 .848-2.212h4.958a11.162 11.162 0 0 1-1.253 3.815 10.952 10.952 0 0 1-2.489 3.041c-1.007.873-2.18 1.548-3.52 2.028-1.327.479-2.795.718-4.405.718Z" fill="currentColor"/></symbol><symbol fill="none" viewBox="0 0 23 28" id="D" xmlns="http://www.w3.org/2000/svg"><path d="M9.29 27.462H2.34v-4.239h6.691c1.942 0 3.557-.356 4.848-1.069 1.29-.712 2.254-1.775 2.893-3.188.652-1.426.977-3.183.977-5.272 0-2.064-.325-3.796-.977-5.197-.639-1.413-1.59-2.476-2.856-3.189C12.65 4.595 11.064 4.24 9.16 4.24H2.212V0h7.262c2.727 0 5.068.553 7.022 1.659 1.966 1.093 3.477 2.666 4.534 4.718 1.057 2.04 1.585 4.479 1.585 7.317 0 2.851-.528 5.309-1.585 7.373-1.057 2.052-2.58 3.63-4.571 4.736-1.99 1.106-4.38 1.66-7.17 1.66ZM4.902 0v27.462H0V0h4.903Z" fill="currentColor"/></symbol><symbol fill="none" viewBox="0 0 19 28" id="E" xmlns="http://www.w3.org/2000/svg"><path d="M1.927 27.462A1.927 1.927 0 0 1 0 25.535V1.927C0 .863.863 0 1.927 0H18.21v4.165H4.903v7.354h12.33v4.11H4.903v7.668h13.362v4.165H1.927Z" fill="currentColor"/></symbol><symbol fill="none" viewBox="0 0 18 28" id="F" xmlns="http://www.w3.org/2000/svg"><path d="M1.927 27.462A1.927 1.927 0 0 1 0 25.535V1.927C0 .863.863 0 1.927 0H17.86v4.165H4.903v8.018h11.796v4.11H4.902v11.17H1.927Z" fill="currentColor"/></symbol><symbol fill="none" viewBox="0 0 25 29" id="G" xmlns="http://www.w3.org/2000/svg"><path d="M12.755 28.236c-2.532 0-4.756-.577-6.673-1.732-1.904-1.155-3.397-2.79-4.478-4.903C.534 19.488 0 17 0 14.137c0-2.925.547-5.444 1.64-7.557 1.106-2.113 2.612-3.735 4.516-4.866C8.061.571 10.223 0 12.644 0c1.511 0 2.924.221 4.24.664a11.195 11.195 0 0 1 3.538 1.916 10.42 10.42 0 0 1 2.562 2.931 10.44 10.44 0 0 1 1.308 3.741H19.28a6.897 6.897 0 0 0-.884-2.009 5.887 5.887 0 0 0-1.438-1.53 5.917 5.917 0 0 0-1.899-.976 7.482 7.482 0 0 0-2.34-.35c-1.524 0-2.876.387-4.055 1.16-1.167.763-2.083 1.869-2.746 3.318-.664 1.45-.996 3.201-.996 5.253 0 2.04.326 3.785.977 5.235.664 1.45 1.585 2.562 2.765 3.336 1.192.774 2.574 1.16 4.147 1.16 1.388 0 2.599-.27 3.63-.81 1.045-.553 1.85-1.327 2.415-2.322.578-.996.866-2.163.866-3.502l1.18.166h-7.538v-3.87h11.15v3.298c0 2.323-.51 4.338-1.53 6.046a10.477 10.477 0 0 1-4.165 3.98c-1.757.935-3.778 1.401-6.064 1.401Z" fill="currentColor"/></symbol><symbol fill="none" viewBox="0 0 23 28" id="H" xmlns="http://www.w3.org/2000/svg"><path d="M1.927 27.462A1.927 1.927 0 0 1 0 25.535V1.927C0 .863.863 0 1.927 0h2.976v11.354h12.736V0h2.993c1.065 0 1.928.863 1.928 1.927v23.608a1.927 1.927 0 0 1-1.928 1.927H17.64V15.52H4.903v11.943H1.927Z" fill="currentColor"/></symbol><symbol fill="none" viewBox="0 0 25 27" id="I" xmlns="http://www.w3.org/2000/svg"><path d="M0 1.927C0 .863.863 0 1.927 0h20.238c1.064 0 1.927.863 1.927 1.927v2.976h-9.91v16.234l9.91-.038v2.993a1.927 1.927 0 0 1-1.927 1.928H1.927A1.927 1.927 0 0 1 0 24.092V21.1l10.016.038V4.903H0V1.927Z" fill="currentColor"/></symbol><symbol fill="none" viewBox="0 0 18 28" id="J" xmlns="http://www.w3.org/2000/svg"><path d="M8.81 27.83c-2.691 0-4.835-.73-6.432-2.192C.792 24.163 0 22.062 0 19.334v-1.603h4.847v1.659c0 1.425.357 2.512 1.07 3.262.712.737 1.677 1.106 2.893 1.106 1.192 0 2.144-.369 2.857-1.106.713-.75 1.069-1.843 1.069-3.28V0h4.884v19.353c0 2.715-.793 4.81-2.378 6.285-1.585 1.462-3.729 2.193-6.432 2.193Z" fill="currentColor"/></symbol><symbol fill="none" viewBox="0 0 23 28" id="K" xmlns="http://www.w3.org/2000/svg"><path d="M3.539 20.809v-5.124c.59-.897 1.18-1.745 1.77-2.544a66.116 66.116 0 0 1 1.842-2.414 99.61 99.61 0 0 1 2.101-2.488L16.477 0h6.083L10.93 13.123l-.369-.092-7.022 7.778Zm-1.612 6.653A1.927 1.927 0 0 1 0 25.535V1.927C0 .863.863 0 1.927 0h2.976v8.165l-.056 6.617.056 2.396v10.284H1.927Zm15.067 0L8.22 14.524l3.041-3.723 11.502 16.661h-5.77Z" fill="currentColor"/></symbol><symbol fill="none" viewBox="0 0 18 28" id="L" xmlns="http://www.w3.org/2000/svg"><path d="M1.927 27.462A1.927 1.927 0 0 1 0 25.535V0h4.903v23.297h12.312v4.165H1.927Z" fill="currentColor"/></symbol><symbol fill="none" viewBox="0 0 30 28" id="M" xmlns="http://www.w3.org/2000/svg"><path d="M0 27.462V1.927C0 .863.863 0 1.927 0h4.01c.808 0 1.529.503 1.809 1.26l4.806 13.006c.172.516.374 1.18.608 1.99.233.799.473 1.659.719 2.58.245.91.473 1.795.682 2.655.22.86.405 1.61.553 2.248h-1.051c.147-.614.325-1.351.534-2.212l.682-2.654c.246-.921.486-1.787.72-2.598.233-.811.441-1.481.626-2.01L21.343 1.27c.277-.763 1-1.27 1.812-1.27h4.02c1.065 0 1.928.863 1.928 1.927v25.535h-4.866V13.547c0-.59.006-1.296.018-2.12.013-.823.031-1.702.056-2.635l.073-2.82c.025-.959.043-1.868.056-2.728h.423c-.258.958-.534 1.935-.829 2.93-.295.996-.583 1.96-.866 2.894-.27.922-.535 1.77-.793 2.544-.245.774-.46 1.419-.645 1.935l-5.124 13.915h-4.11L7.3 13.547l-.645-1.899c-.246-.774-.51-1.621-.793-2.543-.283-.934-.577-1.898-.885-2.894-.295-1.007-.583-1.996-.866-2.967h.498c.024.823.043 1.708.055 2.654l.074 2.82c.024.946.043 1.837.055 2.672.025.836.037 1.555.037 2.157v13.915H0Z" fill="currentColor"/></symbol><symbol fill="none" viewBox="0 0 23 28" id="N" xmlns="http://www.w3.org/2000/svg"><path d="M0 27.462V1.927C0 .863.863 0 1.928 0H4.39c.663 0 1.279.34 1.632.902l8.98 14.285c.357.565.75 1.229 1.18 1.99.43.75.878 1.592 1.345 2.526.48.921.94 1.904 1.383 2.949l-.535.387a157.71 157.71 0 0 1-.203-3.041 400.7 400.7 0 0 1-.129-3.041 95.846 95.846 0 0 1-.037-2.378V0h4.958v25.535a1.927 1.927 0 0 1-1.927 1.927h-2.483c-.662 0-1.278-.34-1.63-.9L8.883 13.806c-.467-.762-.946-1.56-1.438-2.396-.479-.836-1.007-1.788-1.585-2.857a335.965 335.965 0 0 0-1.99-3.741l.719-.222c.073 1.352.135 2.624.184 3.816.061 1.18.104 2.23.129 3.151.037.922.055 1.66.055 2.212v13.694H0Z" fill="currentColor"/></symbol><symbol fill="none" viewBox="0 0 26 29" id="O" xmlns="http://www.w3.org/2000/svg"><path d="M12.662 28.236c-2.42 0-4.59-.565-6.506-1.695-1.905-1.13-3.41-2.753-4.516-4.866C.547 19.561 0 17.049 0 14.137 0 11.2.547 8.675 1.64 6.56c1.106-2.113 2.611-3.735 4.516-4.865C8.073.566 10.242 0 12.662 0s4.583.565 6.488 1.696c1.905 1.13 3.404 2.752 4.497 4.865 1.106 2.114 1.659 4.639 1.659 7.576 0 2.924-.553 5.443-1.659 7.556-1.093 2.101-2.592 3.717-4.497 4.848-1.905 1.13-4.067 1.695-6.488 1.695Zm0-4.386c1.487 0 2.808-.375 3.963-1.125 1.167-.749 2.083-1.843 2.746-3.28.676-1.45 1.014-3.22 1.014-5.308 0-2.101-.338-3.877-1.014-5.327-.663-1.45-1.579-2.55-2.746-3.3-1.155-.749-2.476-1.123-3.963-1.123-1.499 0-2.832.374-4 1.124-1.154.75-2.07 1.85-2.746 3.3-.663 1.449-.995 3.225-.995 5.326 0 2.088.332 3.858.995 5.308.676 1.437 1.592 2.531 2.747 3.28 1.167.75 2.5 1.125 4 1.125Z" fill="currentColor"/></symbol><symbol fill="none" viewBox="0 0 21 28" id="P" xmlns="http://www.w3.org/2000/svg"><path d="M0 27.462V0h10.34c2.076 0 3.834.387 5.271 1.161 1.45.762 2.55 1.819 3.3 3.17.761 1.352 1.142 2.906 1.142 4.663 0 1.77-.38 3.33-1.143 4.682-.762 1.351-1.873 2.408-3.336 3.17-1.462.762-3.238 1.143-5.326 1.143H3.152v-4.092H9.75c1.204 0 2.2-.203 2.986-.608.786-.418 1.376-.995 1.77-1.733.393-.737.59-1.59.59-2.562 0-.97-.197-1.818-.59-2.543-.394-.737-.99-1.309-1.789-1.714-.786-.406-1.781-.608-2.985-.608h-4.83v23.333H0Z" fill="currentColor"/></symbol><symbol fill="none" viewBox="0 0 26 31" id="Q" xmlns="http://www.w3.org/2000/svg"><path d="M12.662 28.236c-2.42 0-4.59-.565-6.506-1.695-1.905-1.13-3.41-2.753-4.516-4.866C.547 19.561 0 17.049 0 14.137 0 11.2.547 8.675 1.64 6.56c1.106-2.113 2.611-3.735 4.516-4.865C8.073.566 10.242 0 12.662 0s4.583.565 6.488 1.696c1.905 1.13 3.404 2.752 4.497 4.865 1.106 2.114 1.659 4.639 1.659 7.576 0 2.924-.553 5.443-1.659 7.556-.768 1.477-1.737 2.713-2.905 3.71a11.737 11.737 0 0 1-3.2 1.933c-1.49.6-3.116.9-4.88.9Zm0-4.386c1.487 0 2.808-.375 3.963-1.125 1.167-.749 2.083-1.843 2.746-3.28.676-1.45 1.014-3.22 1.014-5.308 0-2.101-.338-3.877-1.014-5.327-.663-1.45-1.579-2.55-2.746-3.3-1.155-.749-2.476-1.123-3.963-1.123-1.499 0-2.832.374-4 1.124-1.154.75-2.07 1.85-2.746 3.3-.663 1.449-.995 3.225-.995 5.326 0 2.088.332 3.858.995 5.308.676 1.437 1.592 2.531 2.747 3.28 1.167.75 2.5 1.125 4 1.125Z" fill="currentColor"/><path d="m24.495 30.227-3.753-4.824a11.737 11.737 0 0 1-3.2 1.933l2.253 2.891h4.7Z" fill="currentColor"/></symbol><symbol fill="none" viewBox="0 0 21 28" id="R" xmlns="http://www.w3.org/2000/svg"><path d="M0 27.462V0h10.414c2.076 0 3.833.369 5.27 1.106 1.45.725 2.55 1.745 3.3 3.06.762 1.314 1.143 2.856 1.143 4.626 0 1.757-.387 3.28-1.161 4.57-.774 1.29-1.899 2.286-3.373 2.986-1.463.7-3.244 1.051-5.345 1.051H2.857v-4.055h6.967c1.204 0 2.2-.178 2.986-.534.786-.357 1.376-.873 1.769-1.549.393-.688.59-1.51.59-2.47 0-.982-.197-1.818-.59-2.506-.393-.688-.99-1.216-1.788-1.585-.786-.381-1.782-.571-2.986-.571H4.903v23.333H0Zm15.519 0-6.58-12.44h5.327l6.709 12.44h-5.456Z" fill="currentColor"/></symbol><symbol fill="none" viewBox="0 0 22 29" id="S" xmlns="http://www.w3.org/2000/svg"><path d="M10.733 28.29c-2.163 0-4.045-.343-5.643-1.032-1.586-.688-2.822-1.684-3.707-2.988C.51 22.955.05 21.37 0 19.512h4.832c.061 1.008.344 1.857.848 2.545.517.676 1.205 1.193 2.066 1.55.873.344 1.863.516 2.97.516 1.106 0 2.077-.166 2.913-.498.836-.332 1.488-.793 1.955-1.383.467-.603.7-1.297.7-2.084 0-.701-.196-1.285-.59-1.752-.38-.468-.946-.867-1.696-1.2-.75-.343-1.654-.645-2.711-.903l-3.08-.756c-2.422-.602-4.285-1.506-5.588-2.711C1.328 11.631.682 10.057.682 8.115c0-1.623.43-3.043 1.291-4.26.873-1.218 2.066-2.164 3.578-2.84C7.063.337 8.797 0 10.751 0c1.98 0 3.708.344 5.183 1.033 1.488.676 2.644 1.629 3.467 2.858.837 1.23 1.273 2.656 1.31 4.279H15.99c-.111-1.266-.64-2.25-1.586-2.95-.947-.702-2.183-1.052-3.707-1.052-1.02 0-1.912.16-2.675.48-.762.307-1.352.737-1.77 1.29a3.13 3.13 0 0 0-.609 1.9c0 .725.216 1.328.646 1.807.43.48 1.008.873 1.733 1.18.726.308 1.525.566 2.398.775l2.637.664c1.144.258 2.207.603 3.19 1.033.984.43 1.845.959 2.583 1.586a6.31 6.31 0 0 1 1.733 2.213c.418.86.627 1.857.627 2.988 0 1.635-.418 3.074-1.254 4.315-.836 1.23-2.035 2.189-3.596 2.877-1.55.677-3.418 1.015-5.607 1.015Z" fill="currentColor"/></symbol><symbol fill="none" viewBox="0 0 22 28" id="T" xmlns="http://www.w3.org/2000/svg"><path d="M0 4.168v-2.24C0 .864.863 0 1.929 0h18.034c1.065 0 1.928.863 1.928 1.929v2.239h-8.483v23.311H8.502V4.168H0Z" fill="currentColor"/></symbol><symbol fill="none" viewBox="0 0 23 28" id="U" xmlns="http://www.w3.org/2000/svg"><path d="M11.132 27.886c-2.236 0-4.19-.424-5.86-1.271-1.672-.848-2.968-2.016-3.89-3.502C.461 21.613 0 19.887 0 17.933V0h4.884v17.546c0 1.155.252 2.181.756 3.078a5.553 5.553 0 0 0 2.175 2.12c.934.504 2.04.756 3.317.756 1.278 0 2.378-.252 3.3-.756a5.425 5.425 0 0 0 2.156-2.12c.516-.897.774-1.923.774-3.078V0h4.884v17.933c0 1.954-.46 3.68-1.382 5.18-.922 1.486-2.218 2.654-3.889 3.502-1.659.847-3.606 1.271-5.843 1.271Z" fill="currentColor"/></symbol><symbol fill="none" viewBox="0 0 26 28" id="V" xmlns="http://www.w3.org/2000/svg"><path d="M11.146 27.462a1.927 1.927 0 0 1-1.815-1.28L0 0h5.363l4.903 14.321c.455 1.413.946 3.041 1.475 4.884.54 1.843 1.13 3.932 1.769 6.267h-1.143c.627-2.36 1.198-4.454 1.714-6.285.529-1.831 1.008-3.453 1.438-4.866L20.274 0h5.327l-9.17 26.172c-.27.773-1 1.29-1.818 1.29h-3.467Z" fill="currentColor"/></symbol><symbol fill="none" viewBox="0 0 37 28" id="W" xmlns="http://www.w3.org/2000/svg"><path d="M8.886 27.462a1.927 1.927 0 0 1-1.861-1.425L0 0h5.253l3.594 14.671c.246 1.057.473 2.15.682 3.28.221 1.131.436 2.268.645 3.41.209 1.131.405 2.255.59 3.373h-.83c.222-1.118.437-2.242.645-3.372.21-1.143.43-2.28.664-3.41.233-1.13.48-2.224.737-3.28L15.722 0h5.197l3.723 14.671a93.84 93.84 0 0 1 .738 3.28 403.097 403.097 0 0 1 1.327 6.783h-.867c.197-1.118.393-2.242.59-3.372.209-1.143.424-2.28.645-3.41.234-1.13.473-2.224.719-3.28L31.37 0h5.27l-7.042 26.038a1.927 1.927 0 0 1-1.86 1.424h-2.644c-.875 0-1.64-.588-1.863-1.434l-3.694-13.956a60.55 60.55 0 0 1-.94-4.313c-.27-1.548-.565-3.2-.885-4.957h1.198a195.65 195.65 0 0 0-.884 4.865 51.547 51.547 0 0 1-.94 4.405l-3.677 13.954a1.927 1.927 0 0 1-1.864 1.436h-2.66Z" fill="currentColor"/></symbol><symbol fill="none" viewBox="0 0 24 28" id="X" xmlns="http://www.w3.org/2000/svg"><path d="M.965 27.462a.964.964 0 0 1-.789-1.517l10.05-14.333v3.686L.904 1.503A.964.964 0 0 1 1.701 0h3.844L8.9 5.032c.516.786.958 1.505 1.327 2.156a76.1 76.1 0 0 1 1.05 1.88c.332.602.682 1.247 1.05 1.935h-1.179c.381-.675.738-1.32 1.07-1.935.331-.614.687-1.24 1.068-1.88.381-.651.83-1.37 1.346-2.156L18.042 0h3.691a.964.964 0 0 1 .798 1.505L13.34 15.04V11.5l9.897 14.453a.964.964 0 0 1-.795 1.508h-3.922l-4.166-6.174c-.454-.7-.848-1.315-1.18-1.843a88.478 88.478 0 0 1-.94-1.567c-.294-.516-.614-1.081-.958-1.695h.83c-.332.59-.651 1.142-.959 1.658a39.04 39.04 0 0 1-.958 1.585c-.332.541-.737 1.162-1.217 1.862l-4.239 6.174H.965Z" fill="currentColor"/></symbol><symbol fill="none" viewBox="0 0 24 28" id="Y" xmlns="http://www.w3.org/2000/svg"><path d="M9.413 27.462V16.828L.14 1.462A.964.964 0 0 1 .965 0h4.006l4.922 8.589c.503.872.958 1.732 1.364 2.58.417.848.847 1.825 1.29 2.93h-1.309c.43-1.117.848-2.1 1.253-2.948a39.65 39.65 0 0 1 1.346-2.562L18.647 0h3.98c.748 0 1.21.815.827 1.458l-9.175 15.37v10.634H9.413Z" fill="currentColor"/></symbol><symbol fill="none" viewBox="0 0 21 28" id="Z" xmlns="http://www.w3.org/2000/svg"><path d="M1.927 27.462A1.927 1.927 0 0 1 0 25.535v-.764c0-.407.13-.804.369-1.133L11.943 7.723a56.08 56.08 0 0 1 2.083-2.654c.737-.897 1.487-1.788 2.249-2.673l.46 1.622a66.9 66.9 0 0 1-3.52.129c-1.18.012-2.353.018-3.52.018H.092V0H18.68c1.064 0 1.927.863 1.927 1.927v.783c0 .407-.129.803-.368 1.132L8.884 19.483a62.376 62.376 0 0 1-2.194 2.801c-.761.934-1.542 1.862-2.34 2.783l-.461-1.622a69.556 69.556 0 0 1 3.576-.129c1.191-.012 2.383-.018 3.575-.018h9.658v4.165H1.928Z" fill="currentColor"/></symbol></svg>